
<svg xmlns="http://www.w3.org/2000/svg" version="1.1" xmlns:xlink="http://www.w3.org/1999/xlink" preserveAspectRatio="none" x="0px" y="0px" width="100px" height="100px" viewBox="0 0 100 100">
<defs>
<path id="Layer1_0_1_STROKES" stroke="#E0E0E0" stroke-width="5" stroke-linejoin="round" stroke-linecap="round" fill="none" d="
M 87.35 45.8
Q 86.95 46.9 86.05 47.55 85.15 48.2 84 48.2
L 48.65 48.2
Q 47.15 48.2 46.15 47.15 45.15 46.1 45.15 44.65
L 45.15 42.35 24.65 42.35 24.65 80.75
Q 27 81.8 28.4 83.95 29.9 86.15 29.9 88.75 29.9 92.35 27.35 94.95 24.75 97.5 21.15 97.5 17.55 97.5 15 94.95 12.4 92.35 12.4 88.75 12.4 86.15 13.9 83.95 15.25 81.8 17.65 80.75
L 17.65 6
Q 17.65 4.6 18.65 3.55 19.7 2.5 21.15 2.5 22.65 2.5 23.65 3.55 24.65 4.6 24.65 6
L 24.65 8.8 56.5 8.8
Q 58 8.8 59.05 9.85 60.1 10.9 60.1 12.4
L 60.1 14.65 84 14.65
Q 85.15 14.65 86.05 15.3 86.95 15.95 87.35 17 87.75 18.1 87.45 19.1 87.15 20.2 86.25 20.95
L 73.45 31.45 86.25 41.9
Q 87.15 42.6 87.45 43.7 87.75 44.75 87.35 45.8 Z"/>
</defs>

<g transform="matrix( 1, 0, 0, 1, 0,0) ">
<use xlink:href="#Layer1_0_1_STROKES"/>
</g>
</svg>
