
<svg xmlns="http://www.w3.org/2000/svg" version="1.1" xmlns:xlink="http://www.w3.org/1999/xlink" preserveAspectRatio="none" x="0px" y="0px" width="100px" height="100px" viewBox="0 0 100 100">
<defs>
<g id="Layer0_0_FILL">
<path fill="#F4F4F4" stroke="none" d="
M 186.35 40.95
Q 188.3 39.4 188.95 37 189.65 34.6 188.8 32.25 187.95 29.9 185.9 28.45 183.9 27.05 181.4 27.05
L 128.1 27.05 128.1 21.95
Q 128.1 18.7 125.8 16.4 123.5 14.1 120.25 14.1
L 49.35 14.1 49.35 7.85
Q 49.35 4.6 47.05 2.3 44.75 0 41.5 0 38.25 0 35.95 2.3 33.65 4.6 33.65 7.85
L 33.65 174.05
Q 28.45 176.35 25.3 181.15 22.05 186 22.05 191.85 22.05 199.9 27.75 205.6 33.45 211.3 41.5 211.3 49.55 211.3 55.25 205.6 60.95 199.9 60.95 191.85 60.95 186 57.7 181.15 54.55 176.35 49.35 174.05
L 49.35 88.65 94.8 88.65 94.8 93.75
Q 94.8 97 97.1 99.3 99.4 101.6 102.65 101.6
L 181.4 101.6
Q 183.85 101.6 185.9 100.15 187.95 98.75 188.8 96.4 189.65 94.05 188.95 91.65 188.3 89.2 186.35 87.65
L 157.9 64.3 186.35 40.95 Z"/>
</g>
</defs>

<g transform="matrix( 0.4733734130859375, 0, 0, 0.4732666015625, 0,0) ">
<use xlink:href="#Layer0_0_FILL"/>
</g>
</svg>
