
<svg xmlns="http://www.w3.org/2000/svg" version="1.1" xmlns:xlink="http://www.w3.org/1999/xlink" preserveAspectRatio="none" x="0px" y="0px" width="80px" height="80px" viewBox="0 0 80 80">
<defs>
<linearGradient id="Gradient_1" gradientUnits="userSpaceOnUse" x1="15.5125" y1="66.5625" x2="23.3875" y2="68.63749999999999" spreadMethod="pad">
<stop  offset="0%" stop-color="#CCCCCC"/>

<stop  offset="100%" stop-color="#FFFFFF"/>
</linearGradient>

<linearGradient id="Gradient_2" gradientUnits="userSpaceOnUse" x1="39.825" y1="41.625" x2="34.075" y2="35.875" spreadMethod="pad">
<stop  offset="0%" stop-color="#CCCCCC"/>

<stop  offset="100%" stop-color="#FFFFFF"/>
</linearGradient>

<linearGradient id="Gradient_3" gradientUnits="userSpaceOnUse" x1="63.4875" y1="12.6" x2="58.5125" y2="5.9" spreadMethod="pad">
<stop  offset="0%" stop-color="#E5E5E5"/>

<stop  offset="100%" stop-color="#FFFFFF"/>
</linearGradient>

<linearGradient id="Gradient_4" gradientUnits="userSpaceOnUse" x1="1.45" y1="39.8875" x2="1.45" y2="13.412499999999998" spreadMethod="pad">
<stop  offset="0%" stop-color="#CCCCCC"/>

<stop  offset="100%" stop-color="#FFFFFF"/>
</linearGradient>

<linearGradient id="Gradient_5" gradientUnits="userSpaceOnUse" x1="56.8375" y1="5.2" x2="54.762499999999996" y2="2.3999999999999995" spreadMethod="pad">
<stop  offset="0%" stop-color="#CCCCCC"/>

<stop  offset="100%" stop-color="#FFFFFF"/>
</linearGradient>

<linearGradient id="Gradient_6" gradientUnits="userSpaceOnUse" x1="0.8249999999999993" y1="58.65" x2="60.675" y2="58.65" spreadMethod="pad">
<stop  offset="0%" stop-color="#CCCCCC"/>

<stop  offset="100%" stop-color="#FFFFFF"/>
</linearGradient>

<linearGradient id="Gradient_7" gradientUnits="userSpaceOnUse" x1="30.625000000000004" y1="62.075" x2="37.775000000000006" y2="57.925" spreadMethod="pad">
<stop  offset="0%" stop-color="#CCCCCC"/>

<stop  offset="100%" stop-color="#FFFFFF"/>
</linearGradient>

<radialGradient id="Gradient_8" gradientUnits="userSpaceOnUse" cx="0" cy="0" r="19.174319577236634" fx="0" fy="0" gradientTransform="matrix( 0.9354960382163986, -0.35333717959114147, 0.120604018864135, 0.3194376715860873, 35.2,51.7) " spreadMethod="pad">
<stop  offset="0%" stop-color="#CCCCCC"/>

<stop  offset="100%" stop-color="#FFFFFF"/>
</radialGradient>

<linearGradient id="Gradient_9" gradientUnits="userSpaceOnUse" x1="35.2625" y1="29.862499999999997" x2="37.2375" y2="26.4375" spreadMethod="pad">
<stop  offset="0%" stop-color="#CCCCCC"/>

<stop  offset="100%" stop-color="#FFFFFF"/>
</linearGradient>

<linearGradient id="Gradient_10" gradientUnits="userSpaceOnUse" x1="59.25" y1="12.925" x2="59.25" y2="34.675" spreadMethod="pad">
<stop  offset="0%" stop-color="#CCCCCC"/>

<stop  offset="100%" stop-color="#FFFFFF"/>
</linearGradient>

<linearGradient id="Gradient_11" gradientUnits="userSpaceOnUse" x1="0.7874999999999979" y1="8.2" x2="60.712500000000006" y2="8.2" spreadMethod="pad">
<stop  offset="0%" stop-color="#CCCCCC"/>

<stop  offset="100%" stop-color="#FFFFFF"/>
</linearGradient>

<g id="Layer0_0_FILL">
<path fill="url(#Gradient_1)" stroke="none" d="
M 27.45 36.75
Q 27.10546875 36.8625 26.75 37 19.603125 39.7005859375 18.95 48.25 18.8333984375 49.8048828125 18.9 51.5 18.934765625 51.7787109375 18.95 52 18.98515625 52.6345703125 19.05 53.25 19.2484375 54.9375 19.6 56.8 19.780078125 57.7521484375 20 58.75
L 40.65 58.75
Q 37.655859375 58.5197265625 35.15 57.95 31.6765625 57.1806640625 29.2 55.75 27.3349609375 54.687890625 26.05 53.25 23.05 49.96875 23.15 44.7
L 23.2 44
Q 23.1765625 43.8357421875 23.15 43.65 23.15 43.4857421875 23.15 43.3 23.15 41.35 24.15 39.7 24.2267578125 39.566796875 24.3 39.45 25.2205078125 37.993359375 26.7 37.1
L 27.45 36.75 Z"/>

<path fill="url(#Gradient_2)" stroke="none" d="
M 36.45 30
Q 36.3 29.95 36.15 29.9 35.25 29.6 34.5 28.85 33.8697265625 28.2197265625 33.55 27.45 33.53515625 27.4251953125 33.5 27.4 33.369921875 26.9712890625 33.3 26.5
L 33.3 36.75
Q 34.1970703125 37.175 34.9 37.8 35.7193359375 38.4763671875 36.3 39.4 37.45 41.15 37.45 43.3 37.45 44.2697265625 37.2 45.15 36.7712890625 46.9787109375 35.35 48.4 34.75 49.05 34 49.5 41.3 45.35 39.15 33.65
L 38.4 30.35 38.4 30.3
Q 38.346875 30.1908203125 38.3 30.05 38.25 30.1 38.15 30.1
L 37 30.1
Q 36.75 30.05 36.45 30 Z"/>

<path fill="#CCCCCC" stroke="none" d="
M 7.95 49.1
Q 5.7095703125 44.5609375 5.1 40.25
L 4.95 40.25
Q 5.5798828125 44.703515625 7.95 49.45 8.2142578125 50.0134765625 8.5 50.55 8.65 50.9 8.85 51.2 12.1 57.2 17.85 63.25 18.38984375 63.832421875 18.95 64.4 20.335546875 65.8279296875 21.85 67.2 21.8724609375 67.225 21.9 67.25
L 21.5 67.65 22.65 68
Q 23.65 68.85 24.65 69.7 27.45 72.15 30.35 74.3
L 30.4 74.35 30.45 74.3
Q 33.4 72.1 36.15 69.7 37.6046875 68.4615234375 38.95 67.2 41.06875 65.2525390625 42.95 63.25 47.95 57.9 51.15 52.7 51.3 52.75 51.55 52.75 51.9 52.75 52.2 52.5 52.25 52.45 52.3 52.45
L 52.55 52.6 52.65 52.6
Q 52.7 52.55 52.7 52.5
L 52.65 52.45 52.4 52.3
Q 52.5 52.05 52.5 51.8 52.5 51.45 52.25 51.2 52.25 51.15 52.2 51.15 52.15 51.1 52.1 51.05
L 51.9 50.95
Q 51.75 50.85 51.55 50.85 51.15 50.85 50.85 51.15
L 50.85 51.2 50.8 51.25 50.75 51.2 50.5 51.05
Q 50.5 51 50.45 51
L 50.4 51.05
Q 50.35 51.1 50.4 51.1 50.4 51.15 50.4 51.2
L 50.65 51.4
Q 50.55 51.55 50.55 51.8 50.55 52.2 50.85 52.5 50.9 52.55 51 52.6 47.85 57.8 42.85 63.1 40.8625 65.194921875 38.7 67.2 34.8291015625 70.7943359375 30.4 74.1 27.5 71.95 24.7 69.55 23.7 68.7 22.75 67.85
L 22.45 66.65 22 67.15
Q 20.40625 65.6673828125 18.95 64.15 18.4416015625 63.63046875 17.95 63.1 12.3 57.05 9.05 51.2 8.85 50.85 8.65 50.5 8.28203125 49.8158203125 7.95 49.1
M 51.55 51.05
Q 51.7 51.05 51.85 51.1 51.8 51.15 51.8 51.2 51.65 51.45 51.5 51.7
L 50.95 51.35
Q 50.95 51.3 51 51.25
L 51.05 51.2
Q 51.25 51.05 51.55 51.05
M 50.75 51.8
Q 50.75 51.65 50.85 51.5
L 51.4 51.85
Q 51.25 52.15 51.1 52.45 51.05 52.4 51 52.35 50.75 52.15 50.75 51.8
M 51.2 52.55
Q 51.4 52.25 51.55 51.95
L 52.15 52.35 52.1 52.35
Q 51.85 52.6 51.55 52.6 51.35 52.6 51.2 52.55
M 52 51.2
Q 52.05 51.2 52.1 51.25 52.3 51.5 52.3 51.8 52.3 52 52.25 52.2
L 51.65 51.8
Q 51.85 51.5 52 51.2
M 4.35 24.1
Q 4.5 24.25 4.65 24.25
L 4.65 36.7
Q 4.65 37 4.65 37.35
L 4.8 37.35
Q 4.8 37 4.8 36.7
L 4.8 24.25
Q 5 24.2 5.1 24.1 5.25 23.95 5.25 23.7 5.25 23.5 5.1 23.35 4.95 23.2 4.7 23.2 4.5 23.2 4.35 23.35 4.2 23.5 4.2 23.7 4.2 23.95 4.35 24.1
M 47.9 17.55
Q 47.95 17.7 48.05 17.85 48.2 18 48.45 18 48.65 18 48.8 17.85 48.85 17.8 48.9 17.75 49.15 17.75 49.35 17.8 49.4 17.95 49.55 18.1 49.7 18.3 49.9 18.3 50.1 18.3 50.3 18.1 50.35 18.05 50.4 17.95 50.6 18 50.8 18 50.8 18.2 51 18.35 51.15 18.5 51.35 18.5 51.6 18.5 51.75 18.35 51.85 18.25 51.9 18.1 53.15 18.2 54.4 18.2 55.25 18.2 56 18.15
L 56 36.7
Q 56 37 56 37.35
L 56.15 37.35
Q 56.15 37 56.15 36.7
L 56.15 17.95 56.1 17.95
Q 55.35 18 54.4 18 53.15 18 51.9 17.9 51.85 17.7 51.75 17.6 51.6 17.45 51.35 17.45 51.15 17.45 51 17.6 50.9 17.7 50.85 17.8 50.65 17.8 50.45 17.75 50.45 17.5 50.3 17.35 50.1 17.2 49.9 17.2 49.7 17.2 49.55 17.35 49.4 17.45 49.4 17.6 49.2 17.55 49 17.55 49 17.5 49 17.45 49 17.25 48.8 17.1 48.65 16.9 48.45 16.9 48.2 16.9 48.05 17.1 47.95 17.2 47.95 17.35 44.5 16.6 41.25 15.15 35 12.3 30.45 7.15
L 30.4 7.05 30.35 7.15
Q 27.35 10.55 23.5 13 19.7 15.45 15.35 16.75
L 15.2 16.15 14.25 17.1 15.55 17.45 15.4 16.9
Q 19.75 15.6 23.55 13.2 27.4 10.75 30.4 7.3 34.95 12.5 41.25 15.35 44.5 16.85 47.9 17.55 Z"/>

<path fill="url(#Gradient_3)" stroke="none" d="
M 0.5 38.65
Q 0.05 39.35 0 40.15
L 0 40.25 4.95 40.25 5.1 40.25 13.35 40.25 20 58.75
Q 19.780078125 57.7521484375 19.6 56.8 19.2484375 54.9375 19.05 53.25 18.98515625 52.6345703125 18.95 52 18.934765625 51.7787109375 18.9 51.5 18.8333984375 49.8048828125 18.95 48.25 19.603125 39.7005859375 26.75 37 27.10546875 36.8625 27.45 36.75
L 27.45 26.2
Q 27.40703125 26.8666015625 27.15 27.45 26.8552734375 28.223046875 26.2 28.85 24.9 30.1 23.1 30.1 23.05 30.1 22.95 30.1
L 22.9 30.1 22.1 30
Q 22.1625 30.0125 22.2 30.05
L 12.3 37.35 4.8 37.35 4.65 37.35 2.9 37.35
Q 1.7 37.35 0.85 38.2 0.65 38.4 0.5 38.65 Z"/>

<path fill="url(#Gradient_4)" stroke="none" d="
M 0.8 13.25
Q 0.4 13.2 0 13.15
L 0 40.15
Q 0.05 39.35 0.5 38.65 0.65 38.4 0.85 38.2 1.7 37.35 2.9 37.35
L 2.9 16.4
Q 2.9 15.05 2.05 14.1 1.85 13.85 1.6 13.65 1.2 13.35 0.8 13.25 Z"/>

<path fill="url(#Gradient_5)" stroke="none" d="
M 26.2 22.75
Q 24.9 21.5 23.15 21.5 21.35 21.5 20.05 22.75 19.03984375 23.76015625 18.85 25.15 18.858203125 25.2734375 18.85 25.4 18.8 25.6 18.8 25.8 18.8 26.681640625 19.1 27.45 19.36875 28.0326171875 19.8 28.55 19.95 28.7 20.05 28.8 20.85 29.65 22 30
L 22.1 30 22.9 30.1 22.95 30.1
Q 23.05 30.1 23.1 30.1 24.9 30.1 26.2 28.85 26.8552734375 28.223046875 27.15 27.45 27.40703125 26.8666015625 27.45 26.2
L 27.45 25.95
Q 27.45 25.9 27.45 25.85
L 27.45 25.5
Q 27.45 25.45 27.45 25.4 27.441796875 25.2734375 27.4 25.15 27.2560546875 23.76015625 26.2 22.75 Z"/>

<path fill="url(#Gradient_6)" stroke="none" d="
M 60.65 38.4
Q 60.7 37.85 60.7 37.35
L 60.55 37.35
Q 59.321875 37.3765625 58.45 38.2 57.5 39.05 57.5 40.25 56.795703125 44.558203125 54.65 49.15 54.205859375 50.0896484375 53.7 51.05 50.15 57.75 43.7 64.55 42.455078125 65.8892578125 41.1 67.2 38.9099609375 69.363671875 36.45 71.45 33.5 74.05 30.35 76.35 27.2 74.05 24.2 71.45 21.7724609375 69.36484375 19.55 67.2 19.261328125 66.8884765625 18.95 66.55 17.95 65.5720703125 17 64.55 11.3703125 58.61484375 7.95 52.75 7.4515625 51.9021484375 7 51.05 4.85 47 3.85 43.15
L 0.85 43.15
Q 0.95 43.65 1.1 44.2 2.2 48.25 5.4 53.9 6.49609375 55.8353515625 7.95 57.9 10.7408203125 61.96484375 14.85 66.6 18.85 70.8 23.65 74.8 26.15 76.85 28.6 78.7 29.5 79.35 30.35 80 31.25 79.35 32.1 78.75 34.6 76.85 37.05 74.8 41.506640625 71.0861328125 45.25 67.2 45.5638671875 66.9005859375 45.85 66.6 51.185546875 60.9458984375 54.65 55.3 55.536328125 53.8458984375 56.3 52.4 58.85 47.6 59.9 43.05 60.35 41.25 60.55 39.45 60.6 38.9 60.65 38.4 Z"/>

<path fill="url(#Gradient_7)" stroke="none" d="
M 47.4 40.25
Q 47.337890625 40.375 47.25 40.5 39.858984375 55.20859375 29.2 50.75 29.0484375 50.7099609375 28.9 50.65 28.2541015625 50.351953125 27.6 50 26.35 49.45 25.25 48.4 24.5931640625 47.7248046875 24.15 46.95 23.3587890625 45.6193359375 23.2 44
L 23.15 44.7
Q 23.05 49.96875 26.05 53.25 27.3349609375 54.687890625 29.2 55.75 31.6765625 57.1806640625 35.15 57.95 37.655859375 58.5197265625 40.65 58.75
L 47.4 40.25 Z"/>

<path fill="url(#Gradient_8)" stroke="none" d="
M 47.25 40.5
Q 47.337890625 40.375 47.4 40.25
L 57.5 40.25
Q 57.5 39.05 58.45 38.2 59.321875 37.3765625 60.55 37.35
L 56.15 37.35 56 37.35 48.3 37.35 38.35 30.05
Q 38.35 30.190625 38.4 30.3
L 38.4 30.35 39.15 33.65
Q 41.3 45.35 34 49.5 33.847265625 49.5955078125 33.7 49.65 32.6107421875 50.2765625 31.3 50.45 30.822265625 50.5 30.3 50.5 29.734765625 50.5 29.2 50.4 28.9041015625 50.3826171875 28.6 50.3 28.0931640625 50.197265625 27.6 50 28.2541015625 50.351953125 28.9 50.65 29.0484375 50.7099609375 29.2 50.75 39.858984375 55.20859375 47.25 40.5 Z"/>

<path fill="url(#Gradient_9)" stroke="none" d="
M 40.9 28.6
Q 41.3458984375 28.06484375 41.6 27.45 41.9 26.6865234375 41.9 25.8 41.9 24 40.65 22.75 39.4 21.5 37.6 21.5 35.8 21.5 34.55 22.75 33.25 24 33.25 25.8 33.25 25.9 33.3 26.1
L 33.3 26.5
Q 33.369921875 26.9712890625 33.5 27.4 33.53515625 27.4251953125 33.55 27.45 33.8697265625 28.2197265625 34.5 28.85 35.25 29.6 36.15 29.9 36.3 29.95 36.45 30 36.75 30.05 37 30.1
L 38.15 30.1
Q 38.25 30.1 38.3 30.05 39.85 29.8 40.9 28.6 Z"/>

<path fill="url(#Gradient_10)" stroke="none" d="
M 59.85 15.45
Q 59 16.4 57.8 16.4
L 57.8 34.45 60.7 34.45 60.7 13.3
Q 60.6734375 14.5296875 59.85 15.45 Z"/>

<path fill="url(#Gradient_11)" stroke="none" d="
M 58.5 13.4
Q 57.25 13.5 56 13.5 55.45 13.5 54.95 13.45 47.7 13.25 41.3 9.8 34.65 6.25 30.35 0 26.05 6.25 19.4 9.8 12.55 13.5 4.7 13.5 3.45 13.5 2.25 13.4 1.55 13.35 0.9 13.25 0.85 13.25 0.8 13.25 1.2 13.35 1.6 13.65 1.85 13.85 2.05 14.1 2.9 15.05 2.9 16.4 3.8 16.45 4.7 16.45 12.1 16.45 18.8 13.4 25.5 10.35 30.35 4.75 35.2 10.35 41.9 13.4 48.6 16.45 56 16.45 56.9 16.45 57.8 16.4 59 16.4 59.85 15.45 60.6734375 14.5296875 60.7 13.3
L 60.7 13.15
Q 60.3 13.2 59.85 13.25 59.15 13.35 58.5 13.4 Z"/>
</g>

<g id="Layer0_0_MEMBER_0_FILL">
<path fill="#000000" fill-opacity="0.09803921568627451" stroke="none" d="
M 31.3 50.45
Q 30.822265625 50.5 30.3 50.5 28.85 50.5 27.6 50 39.3083984375 56.3005859375 47.25 40.5 39.9595703125 52.6177734375 31.3 50.45
M 24.15 46.95
Q 23.3587890625 45.6193359375 23.2 44 22.85 49.75 26.05 53.25 30.25 57.95 40.65 58.75 30.341015625 57.338671875 26.45 52.4 24.5697265625 50.080859375 24.15 46.95
M 37.2 45.15
Q 36.7712890625 46.9787109375 35.35 48.4 34.75 49.05 34 49.5 41.3 45.35 39.15 33.65
L 38.4 30.35 38.95 33.75
Q 39.7419921875 40.96953125 37.2 45.15
M 24.3 39.45
Q 25.233203125 37.9732421875 26.75 37.1
L 27.45 36.75
Q 17.65 39.95 19.05 53.25 19.35 55.8 20 58.75
L 20.05 58.75
Q 19.54921875 55.7787109375 19.45 53.25 19.0470703125 43.431640625 24.3 39.45 Z"/>
</g>
</defs>

<g transform="matrix( 1, 0, 0, 1, 9.65,0) ">
<use xlink:href="#Layer0_0_FILL"/>
</g>

<g transform="matrix( 1, 0, 0, 1, 9.65,0) ">
<use xlink:href="#Layer0_0_MEMBER_0_FILL"/>
</g>
</svg>
