
<svg xmlns="http://www.w3.org/2000/svg" version="1.1" xmlns:xlink="http://www.w3.org/1999/xlink" preserveAspectRatio="none" x="0px" y="0px" width="100px" height="100px" viewBox="0 0 100 100">
<defs>
<path id="Layer1_0_1_STROKES" stroke="#E0E0E0" stroke-width="5" stroke-linejoin="round" stroke-linecap="round" fill="none" d="
M 87.7 42.75
L 87.7 20.8 77 20.8 76.95 33.75 87.7 42.75 97.5 50.9
M 76.95 33.75
L 50 11.2 10.05 44.55 10.05 86.55 10.25 87.8
Q 10.9 88.8 12.3 88.8
L 39.55 88.8 39.8 66.45
Q 39.8 65.65 40 64.65 40.6 62.8 42.85 62.8
L 54.1 62.8
Q 58.4 62.8 58.2 66.45
L 57.95 88.8 84.85 88.8
Q 87.7 88.8 87.7 85.75
L 87.7 42.75
M 10.05 44.55
L 2.5 50.9"/>
</defs>

<g transform="matrix( 1, 0, 0, 1, 0,0) ">
<use xlink:href="#Layer1_0_1_STROKES"/>
</g>
</svg>
