
<svg xmlns="http://www.w3.org/2000/svg" version="1.1" xmlns:xlink="http://www.w3.org/1999/xlink" preserveAspectRatio="none" x="0px" y="0px" width="100px" height="100px" viewBox="0 0 100 100">
<defs>
<g id="Layer2_0_FILL">
<path fill="#E0E0E0" stroke="none" d="
M 82.75 94.3
Q 85.4 94.3 85.4 91.45
L 85.4 53.3 50.45 22.4 13.45 53.3 13.45 92.2 13.65 93.35
Q 14.25 94.3 15.55 94.3
L 40.8 94.3 41 73.6
Q 41 72.85 41.2 71.9 41.75 70.2 43.85 70.2
L 54.25 70.2
Q 58.25 70.2 58.05 73.6
L 57.85 94.3 82.75 94.3
M 89.2 50.3
Q 94.1 53.9 97.55 52.35 99.25 51.8 100 50.3
L 50.85 5.7 0 50.45
Q 0.75 52 2.45 52.75 5.7 54.05 9.85 50.45
L 50.85 15.95 89.2 50.3
M 88.25 36.05
L 88.25 15.75 78.35 15.75 78.35 27.7 88.25 36.05 Z"/>
</g>
</defs>

<g transform="matrix( 1, 0, 0, 1, 0,0) ">
<use xlink:href="#Layer2_0_FILL"/>
</g>
</svg>
