
<svg xmlns="http://www.w3.org/2000/svg" version="1.1" xmlns:xlink="http://www.w3.org/1999/xlink" preserveAspectRatio="none" x="0px" y="0px" width="100px" height="100px" viewBox="0 0 100 100">
<defs>
<g id="Layer0_0_MEMBER_0_FILL">
<path fill="#F4F4F4" stroke="none" d="
M 399.35 62.05
Q 388.3 51 372.8 51
L 312.9 51 312.9 36.6
Q 312.9 21.45 302.15 10.75 291.4 0 276.3 0
L 188.95 0
Q 173.85 0 163.1 10.75 152.4 21.45 152.4 36.6
L 152.4 51 92.5 51
Q 76.95 51 65.9 62.05 54.9 73.05 54.9 88.6
L 54.9 127.5
Q 54.9 133.75 59.3 138.1 63.7 142.5 69.9 142.5
L 77.6 142.5 77.6 450.35
Q 77.6 456.55 82 460.9 86.4 465.3 92.6 465.3
L 372.65 465.3
Q 378.85 465.3 383.25 460.9 387.65 456.55 387.65 450.35
L 387.65 142.5 395.35 142.5
Q 401.6 142.5 405.95 138.1 410.35 133.75 410.35 127.5
L 410.35 88.6
Q 410.35 73.05 399.35 62.05
M 378.15 83.25
Q 380.35 85.45 380.35 88.6
L 380.35 112.5 84.9 112.5 84.9 88.6
Q 84.9 85.45 87.15 83.25 89.35 81 92.5 81
L 372.8 81
Q 375.9 81 378.15 83.25
M 280.95 31.95
Q 282.9 33.85 282.9 36.6
L 282.9 51 182.4 51 182.4 36.6
Q 182.4 33.85 184.35 31.95 186.25 30 188.95 30
L 276.3 30
Q 279.05 30 280.95 31.95
M 357.65 142.5
L 357.65 435.3 107.6 435.3 107.6 142.5 357.65 142.5 Z"/>
</g>

<g id="Layer0_0_MEMBER_1_FILL">
<path fill="#F4F4F4" stroke="none" d="
M 130.3 159.45
Q 127.4 162.35 127.4 166.5
L 127.4 403.5
Q 127.4 407.65 130.3 410.55 133.25 413.5 137.4 413.5 141.55 413.5 144.45 410.55 147.4 407.65 147.4 403.5
L 147.4 166.5
Q 147.4 162.4 144.45 159.45 141.55 156.5 137.4 156.5 133.25 156.5 130.3 159.45 Z"/>
</g>

<g id="Layer0_0_MEMBER_2_FILL">
<path fill="#F4F4F4" stroke="none" d="
M 193.8 159.45
Q 190.9 162.35 190.9 166.5
L 190.9 403.5
Q 190.9 407.65 193.8 410.55 196.75 413.5 200.9 413.5 205.05 413.5 207.95 410.55 210.9 407.65 210.9 403.5
L 210.9 166.5
Q 210.9 162.4 207.95 159.45 205.05 156.5 200.9 156.5 196.75 156.5 193.8 159.45 Z"/>
</g>

<g id="Layer0_0_MEMBER_3_FILL">
<path fill="#F4F4F4" stroke="none" d="
M 257.3 159.45
Q 254.4 162.35 254.4 166.5
L 254.4 403.5
Q 254.4 407.65 257.3 410.55 260.25 413.5 264.4 413.5 268.55 413.5 271.45 410.55 274.4 407.65 274.4 403.5
L 274.4 166.5
Q 274.4 162.4 271.45 159.45 268.55 156.5 264.4 156.5 260.25 156.5 257.3 159.45 Z"/>
</g>

<g id="Layer0_0_MEMBER_4_FILL">
<path fill="#F4F4F4" stroke="none" d="
M 334.95 159.45
Q 332.05 156.5 327.9 156.5 323.75 156.5 320.8 159.45 317.9 162.35 317.9 166.5
L 317.9 403.5
Q 317.9 407.65 320.8 410.55 323.75 413.5 327.9 413.5 332.05 413.5 334.95 410.55 337.9 407.65 337.9 403.5
L 337.9 166.5
Q 337.9 162.4 334.95 159.45 Z"/>
</g>
</defs>

<g transform="matrix( 0.214935302734375, 0, 0, 0.2149200439453125, 0,0) ">
<use xlink:href="#Layer0_0_MEMBER_0_FILL"/>
</g>

<g transform="matrix( 0.214935302734375, 0, 0, 0.2149200439453125, 0,0) ">
<use xlink:href="#Layer0_0_MEMBER_1_FILL"/>
</g>

<g transform="matrix( 0.214935302734375, 0, 0, 0.2149200439453125, 0,0) ">
<use xlink:href="#Layer0_0_MEMBER_2_FILL"/>
</g>

<g transform="matrix( 0.214935302734375, 0, 0, 0.2149200439453125, 0,0) ">
<use xlink:href="#Layer0_0_MEMBER_3_FILL"/>
</g>

<g transform="matrix( 0.214935302734375, 0, 0, 0.2149200439453125, 0,0) ">
<use xlink:href="#Layer0_0_MEMBER_4_FILL"/>
</g>
</svg>
