
<svg xmlns="http://www.w3.org/2000/svg" version="1.1" xmlns:xlink="http://www.w3.org/1999/xlink" preserveAspectRatio="none" x="0px" y="0px" width="100px" height="100px" viewBox="0 0 100 100">
<defs>
<g id="Layer0_0_FILL">
<path fill="#333333" stroke="none" d="
M 91.65 40.2
Q 87.55 41.65 83.35 41.65 78.25 41.65 73.6 39.7 69.1 37.8 65.65 34.35 62.2 30.9 60.3 26.4 58.35 21.75 58.35 16.65 58.35 12.45 59.8 8.35
L 16.65 8.35
Q 13.25 8.35 10.2 9.65 7.2 10.9 4.9 13.2 2.6 15.55 1.3 18.5 0 21.6 0 25
L 0 83.35
Q 0 86.75 1.3 89.8 2.6 92.8 4.9 95.1 7.2 97.4 10.2 98.7 13.25 100 16.65 100
L 75 100
Q 78.4 100 81.5 98.7 84.45 97.4 86.8 95.1 89.1 92.8 90.35 89.8 91.65 86.75 91.65 83.35
L 91.65 40.2
M 100 16.65
Q 100 13.3 98.7 10.2 97.4 7.2 95.1 4.9 92.8 2.6 89.8 1.3 86.7 0 83.35 0 79.95 0 76.85 1.3 73.85 2.6 71.55 4.9 69.25 7.2 67.95 10.2 66.65 13.3 66.65 16.65 66.65 20.05 67.95 23.15 69.25 26.15 71.55 28.45 73.85 30.75 76.85 32.05 79.95 33.35 83.35 33.35 86.7 33.35 89.8 32.05 92.8 30.75 95.1 28.45 97.4 26.15 98.7 23.15 100 20.05 100 16.65 Z"/>
</g>
</defs>

<g transform="matrix( 1, 0, 0, 1, 0,0) ">
<use xlink:href="#Layer0_0_FILL"/>
</g>
</svg>
