
<svg xmlns="http://www.w3.org/2000/svg" version="1.1" xmlns:xlink="http://www.w3.org/1999/xlink" preserveAspectRatio="none" x="0px" y="0px" width="16px" height="20px" viewBox="0 0 16 20">
<defs>
<g id="Layer0_0_FILL">
<path fill="#999999" stroke="none" d="
M 13.4 2.1
L 13.3 2.1 13.05 2.05 13 2.05 13 2 6 2
Q 5.15 2 4.55 2.6 4 3.15 4 4
L 4 20
Q 4 20.85 4.55 21.45 5.15 22 6 22
L 18 22
Q 18.85 22 19.4 21.45 20 20.85 20 20
L 20 9 19.95 9 19.95 8.95 19.9 8.7 19.9 8.6 19.7 8.3 13.7 2.3 13.4 2.1
M 13 4
L 18 9 13 9 13 4 Z"/>
</g>
</defs>

<g transform="matrix( 1, 0, 0, 1, -4,-2) ">
<use xlink:href="#Layer0_0_FILL"/>
</g>
</svg>
