
<svg xmlns="http://www.w3.org/2000/svg" version="1.1" xmlns:xlink="http://www.w3.org/1999/xlink" preserveAspectRatio="none" x="0px" y="0px" width="80px" height="80px" viewBox="0 0 80 80">
<defs>
<linearGradient id="Gradient_1" gradientUnits="userSpaceOnUse" x1="29.6625" y1="1.3874999999999957" x2="50.3375" y2="78.61250000000001" spreadMethod="pad">
<stop  offset="0%" stop-color="#86FAF2"/>

<stop  offset="49.80392156862745%" stop-color="#00A6D7"/>

<stop  offset="100%" stop-color="#001B87"/>
</linearGradient>

<g id="Mask_1_MASK_0_FILL">
<path fill="#FFFFFF" stroke="none" d="
M 205.1 -92.25
Q 204.8 -92.5 204.05 -92.95 202.65 -93.8 201.55 -93.5 200.85 -93.35 200.5 -92.9 200.15 -92.2 199.25 -90.2 198.1 -87.5 197.55 -86.4 196.6 -84.55 195.95 -83.95
L 194.95 -84.95
Q 195.45 -85.45 196.35 -87.3 196.9 -88.35 197.95 -90.8 199.1 -93.45 199.7 -94.5 200.45 -95.95 200.25 -96.35 200.05 -96.75 198.25 -97 196.6 -97.15 194.95 -95.35 193.9 -94.25 191.85 -91
L 190.7 -89.1
Q 189.5 -87.3 188.8 -85.35 188.4 -84.15 187.85 -81.8 187.35 -79.5 186.95 -78.4 186.55 -77.15 185.7 -76.25 185.2 -75.75 184.15 -75.05 183.15 -74.4 182.75 -73.95 182.05 -73.2 181.7 -71.95 181.15 -70.2 181.75 -67.8 182.05 -66.35 183.2 -63.45 184.1 -61.1 184.4 -59.95 185 -57.7 183.45 -55.8 182.4 -54.55 180.6 -53.6 181.1 -53.15 181.55 -52.9 182.15 -52.65 182.95 -52.55 184.1 -52.4 186.3 -52.35 188.75 -52.3 190.1 -52.15 192.35 -51.85 194.55 -51
L 197.4 -49.9
Q 198.5 -52.95 200.05 -54.8 201.25 -56.2 203.95 -61.25 206.6 -66.25 208.65 -70.95 209.75 -73.45 209.95 -76.6 210.1 -78.9 209.75 -81.25 209 -79.8 208 -78.35
L 206.85 -79.2
Q 208.9 -82.05 209.4 -84.75 209.9 -87.2 208.9 -88.15 208.05 -88.95 207.2 -89.1 206.65 -89.2 206.15 -89.05
L 205.6 -88.2
Q 204.4 -86.35 203.6 -83.9 203.2 -82.65 203.05 -81.75
L 201.65 -82
Q 201.8 -83 202.25 -84.35 203.1 -87 204.45 -89 205.75 -90.95 205.55 -91.65 205.5 -91.95 205.1 -92.25
M 156.9 -52.65
L 156.6 -52.5
Q 155.7 -51.9 155.3 -51.5 154.7 -50.85 154.35 -49.9 153.95 -48.8 153.5 -46.65 152.9 -44.25 152.45 -43 151.7 -40.85 150.4 -38.9
L 148.95 -36.6
Q 152.85 -35.95 155.95 -35.3 160.95 -34.25 162.3 -33.5 163.95 -32.6 169.4 -31 174.85 -29.4 179.85 -28.35 182.55 -27.8 185.65 -28.25 187.9 -28.6 190.2 -29.4 188.6 -29.8 187 -30.5
L 187.6 -31.8
Q 190.8 -30.4 193.55 -30.45 196.05 -30.45 196.8 -31.6 197.4 -32.6 197.35 -33.5 197.35 -34.05 197.1 -34.5 196.6 -34.65 196.15 -34.85 194.1 -35.7 191.5 -35.95
L 189.3 -36.05 189.25 -37.5
Q 189.3 -37.5 191.7 -37.4 194.45 -37.1 196.7 -36.2 198.85 -35.3 199.5 -35.6 199.8 -35.7 200 -36.15 200.2 -36.5 200.5 -37.35 201.05 -38.9 200.5 -39.95 200.25 -40.55 199.7 -40.85 198.55 -41.1 196.8 -41.45 193.95 -42.05 192.75 -42.4 190.75 -42.95 190 -43.45
L 190.8 -44.6
Q 191.4 -44.25 193.4 -43.7 194.55 -43.4 197.1 -42.85 200 -42.25 201.1 -41.95 202.7 -41.5 203.05 -41.75 203.4 -42.05 203.25 -43.85 203.1 -45.5 201 -46.75 199.7 -47.5 196.1 -48.9 194.55 -49.45 194 -49.65 192 -50.45 189.95 -50.75 188.65 -50.9 186.3 -50.95 184.1 -50.95 182.8 -51.1 181.45 -51.25 180.4 -51.9 179.8 -52.3 178.95 -53.2 178.1 -54.05 177.55 -54.35 176.7 -54.9 175.4 -55 173.6 -55.1 171.35 -54.1 169.95 -53.45 167.35 -51.75 165.25 -50.4 164.15 -49.85 161.95 -48.75 159.6 -50.15 158.15 -51 156.9 -52.65
M 143.6 -78.65
L 142.75 -78.95
Q 141.65 -75.95 140.1 -74.1 138.85 -72.65 136.15 -67.65 133.45 -62.65 131.35 -58 130.25 -55.5 130.05 -52.35 129.85 -50.05 130.2 -47.7 130.95 -49.2 131.95 -50.55
L 133.1 -49.75
Q 131.05 -46.85 130.5 -44.2 130 -41.75 131 -40.8 131.8 -40 132.7 -39.8 133.25 -39.7 133.7 -39.85 134.05 -40.35 134.25 -40.75 135.5 -42.55 136.3 -45
L 136.9 -47.15 138.3 -46.9
Q 138.3 -46.85 137.7 -44.55 136.8 -41.9 135.45 -39.9 134.15 -38 134.3 -37.3 134.35 -37 134.75 -36.65 135.05 -36.4 135.8 -35.95 137.2 -35.1 138.3 -35.35 138.95 -35.5 139.35 -36 139.8 -36.85 140.6 -38.65 141.8 -41.35 142.4 -42.5 143.3 -44.3 143.95 -44.9
L 144.95 -43.9
Q 144.45 -43.4 143.55 -41.55 143 -40.45 141.9 -38.1 140.65 -35.3 140.15 -34.4 139.35 -32.95 139.6 -32.5 139.8 -32.1 141.55 -31.9 143.2 -31.7 144.9 -33.5 145.95 -34.6 148 -37.85 148.7 -38.95 149.2 -39.7 150.4 -41.5 151.1 -43.45 151.5 -44.65 152.1 -47
L 152.05 -47
Q 152.6 -49.3 153 -50.4 153.45 -51.65 154.25 -52.5 154.75 -53 155.85 -53.7 156.85 -54.35 157.25 -54.8 157.95 -55.55 158.3 -56.75 158.85 -58.5 158.3 -60.95 158 -62.35 156.9 -65.3 156 -67.7 155.7 -68.85 155.1 -71.05 156.65 -72.95 157.7 -74.2 159.55 -75.15 159.05 -75.6 158.6 -75.8 158 -76.1 157.2 -76.2 156.45 -76.3 155.5 -76.35 155.05 -76.4 153.85 -76.4 151.4 -76.45 150.05 -76.65 147.8 -76.95 145.6 -77.85 144.75 -78.2 143.6 -78.65
M 154.65 -100.5
Q 152.4 -100.2 150.1 -99.4 151.7 -99 153.3 -98.25
L 152.7 -96.95
Q 149.5 -98.4 146.75 -98.4 144.25 -98.4 143.5 -97.25 142.9 -96.25 142.9 -95.35 142.9 -94.8 143.15 -94.35 143.7 -94.2 144.15 -94 146.15 -93.15 148.75 -92.85 150.05 -92.7 150.95 -92.75
L 151 -91.3
Q 149.95 -91.3 148.55 -91.45 145.8 -91.75 143.6 -92.65 141.4 -93.55 140.75 -93.25 140.5 -93.15 140.25 -92.7 140.05 -92.35 139.75 -91.55 139.25 -90 139.7 -88.95 140 -88.35 140.55 -88.05 141.1 -87.9 143.4 -87.4 146.25 -86.75 147.5 -86.4 149.45 -85.9 150.2 -85.35
L 149.4 -84.2
Q 148.8 -84.6 146.8 -85.1 145.6 -85.45 143.1 -86 140.1 -86.65 139.15 -86.95 137.55 -87.4 137.2 -87.1 136.8 -86.85 136.95 -85.05 137.1 -83.4 139.2 -82.15 140.5 -81.35 144.1 -80
L 144.1 -79.95
Q 145.4 -79.5 146.15 -79.15 148.2 -78.35 150.25 -78.05 151.5 -77.9 153.9 -77.85 155.15 -77.8 155.6 -77.8 156.6 -77.75 157.4 -77.65 158.75 -77.45 159.75 -76.8 160.35 -76.4 161.2 -75.55 162.05 -74.65 162.6 -74.35 163.45 -73.8 164.75 -73.7 166.55 -73.55 168.8 -74.6 170.15 -75.2 172.8 -76.85 174.95 -78.2 176 -78.75 178.1 -79.8 180.35 -78.55 181.85 -77.75 183.1 -76.1
L 183.35 -76.3
Q 184.25 -76.85 184.65 -77.25 185.25 -77.9 185.6 -78.85 185.95 -79.9 186.45 -82.1 187 -84.5 187.45 -85.8 188.2 -87.95 189.5 -89.9
L 190.95 -92.2
Q 187.15 -92.8 184.1 -93.4 179.35 -94.35 178 -95.1 176.35 -96 170.9 -97.65 165.45 -99.25 160.5 -100.35 157.8 -100.95 154.65 -100.5 Z"/>
</g>

<g id="Layer1_0_FILL">
<path fill="url(#Gradient_1)" stroke="none" d="
M 80 80
L 80 0 0 0 0 80 80 80 Z"/>
</g>

<path id="Layer1_0_1_STROKES" stroke="#00FF00" stroke-width="0.05" stroke-linejoin="round" stroke-linecap="round" fill="none" d="
M 0 0
L 80 0 80 80 0 80 0 0 Z"/>
</defs>

<mask id="Mask_Mask_1">
<g transform="matrix( 1, 0, 0, 1, -130,104.4) ">
<use xlink:href="#Mask_1_MASK_0_FILL"/>
</g>
</mask>

<g mask="url(#Mask_Mask_1)">
<g transform="matrix( 1, 0, 0, 1, 0,0) ">
<use xlink:href="#Layer1_0_FILL"/>

<use xlink:href="#Layer1_0_1_STROKES"/>
</g>
</g>
</svg>
