
<svg xmlns="http://www.w3.org/2000/svg" version="1.1" xmlns:xlink="http://www.w3.org/1999/xlink" preserveAspectRatio="none" x="0px" y="0px" width="100px" height="100px" viewBox="0 0 100 100">
<defs>
<g id="Layer0_0_FILL">
<path fill="#1C1C1C" stroke="none" d="
M 78.95 25.5
Q 78.95 21.1 74.55 21.1
L 4.15 21.1
Q 2.35 21.1 1.1 22.4 -0.2 23.7 0.05 25.5
L 0.05 95.4 12.4 82.8 75.6 82.8
Q 79.45 82.3 78.95 78.95
L 78.95 25.5
M 9.2 79.65
L 9.15 79.65 4.55 84.35 4.55 25.6 74.45 25.6 74.45 78.3 12.4 78.3
Q 10.537890625 78.301171875 9.2 79.65
M 32 64.1
L 32 70.15
Q 32.0052734375 70.766015625 32.45 71.2 32.883984375 71.6447265625 33.5 71.65
L 42.55 71.65
Q 43.166015625 71.6447265625 43.6 71.2 44.0447265625 70.766015625 44.05 70.15
L 44.05 64.1
Q 44.0447265625 63.483984375 43.6 63.05 43.166015625 62.6052734375 42.55 62.6
L 33.5 62.6
Q 32.883984375 62.6052734375 32.45 63.05 32.0052734375 63.483984375 32 64.1
M 35 68.65
L 35 65.6 41.05 65.6 41.05 68.65 35 68.65
M 44.1 41.4
L 44.1 44.85 33 48.5
Q 32.5642578125 48.6787109375 32.25 49.05 31.99453125 49.469140625 32 49.95
L 32 58.05
Q 32.0052734375 58.666015625 32.45 59.1 32.883984375 59.5447265625 33.5 59.55
L 42.55 59.55
Q 43.166015625 59.5447265625 43.6 59.1 44.0447265625 58.666015625 44.05 58.05
L 44.05 54.5 55.15 50.35
Q 55.6109375 50.18515625 55.85 49.8 56.1466796875 49.4154296875 56.15 48.95
L 56.15 39.9
Q 56.15 32.2939453125 48.6 32.3
L 24.4 32.3
Q 23.783984375 32.3052734375 23.35 32.75 22.9052734375 33.183984375 22.9 33.8
L 22.9 39.9
Q 22.9052734375 40.516015625 23.35 40.95 23.783984375 41.3947265625 24.4 41.4
L 44.1 41.4
M 46.65 38.85
Q 46.216015625 38.4052734375 45.6 38.4
L 25.9 38.4 25.9 35.3 48.6 35.3
Q 53.15 35.3060546875 53.15 39.9
L 53.15 47.9 42 52.1
Q 41.5890625 52.2646484375 41.3 52.65 41.0533203125 53.034375 41.05 53.5
L 41.05 56.55 35 56.55 35 51 46.05 47.35
Q 46.535546875 47.2212890625 46.8 46.8 47.10546875 46.430859375 47.1 45.95
L 47.1 39.9
Q 47.0947265625 39.283984375 46.65 38.85
M 100 8.6
Q 99.9203125 4.65 95.9 4.65
L 25.25 4.65
Q 21.15 5.15 21.15 9
L 21.15 15.45 80.5 15.45
Q 84.6 15.45 84.6 19.55
L 84.6 67.4 88.45 67.4 100 78.95 100 8.6
M 95.5 68.1
L 91.65 64.25
Q 90.5517578125 63.1427734375 89.1 62.95
L 89.1 19.55
Q 89.1 10.95 80.5 10.95
L 25.65 10.95 25.65 9.15 95.5 9.15 95.5 68.1 Z"/>
</g>
</defs>

<g transform="matrix( 1, 0, 0, 1, 0,0) ">
<use xlink:href="#Layer0_0_FILL"/>
</g>
</svg>
