
<svg xmlns="http://www.w3.org/2000/svg" version="1.1" xmlns:xlink="http://www.w3.org/1999/xlink" preserveAspectRatio="none" x="0px" y="0px" width="80px" height="80px" viewBox="0 0 80 80">
<defs>
<linearGradient id="Gradient_1" gradientUnits="userSpaceOnUse" x1="11.724999999999998" y1="11.724999999999998" x2="68.275" y2="68.275" spreadMethod="pad">
<stop  offset="0%" stop-color="#86FAF2"/>

<stop  offset="25.49019607843137%" stop-color="#30E7ED"/>

<stop  offset="49.80392156862745%" stop-color="#00A6D7"/>

<stop  offset="75.68627450980392%" stop-color="#0058B3"/>

<stop  offset="100%" stop-color="#001B87"/>
</linearGradient>

<g id="Mask_1_MASK_0_FILL">
<path fill="#FFFFFF" stroke="none" d="
M 456.25 103.45
L 456.25 92.25 322.75 92.25 322.75 103.45 456.25 103.45
M 373.35 67.85
Q 370.15 64.7 365.75 64.7
L 330.35 65.1 302.1 17.7
Q 300.55 14.95 297.6 13.4 294.7 11.9 290.9 11.9 289.1 11.9 288 12.35 286.3 12.75 285.7 12.9 270.3 18.1 259.55 39.55 248.8 60.9 248.8 86.25 248.5 101 249.4 113.1 248.8 120.55 252.8 126.95 256.85 133.4 264 136 268.7 137.5 271.5 137.5
L 333.2 137.5 333.2 195.1
Q 333.2 201 337.3 205.05 341.35 209.1 347.2 209.1 353.1 209.1 357.15 205.05 361.2 201 361.2 195.1
L 361.2 123.25
Q 361.2 120.55 360.1 118 359 115.3 357 113.45 352.4 109.1 347.1 109.1
L 305.6 109.1 305.6 78.3 284.45 41.8
Q 283.85 40.7 284.2 39.5 284.5 38.3 285.45 37.6 286.55 37.05 287.75 37.35 288.9 37.7 289.65 38.6
L 314.25 80.95
Q 315.75 83.35 318.05 84.8 320.55 86.3 323.45 86.3
L 365.75 86.3
Q 370.2 86.3 373.4 83.1 376.55 79.9 376.55 75.5 376.55 71.05 373.35 67.85
M 467.95 21.05
L 459.6 17.55 435.8 75.8 382.3 75.8 382.3 85.05 441.95 85.05 441.95 84.1 442.1 84.3 467.95 21.05
M 309.85 -37.1
Q 299.65 -37.1 292.45 -29.9 285.25 -22.65 285.25 -12.5 285.25 -2.3 292.45 4.9 299.65 12.1 309.85 12.1 320 12.1 327.25 4.9 334.45 -2.3 334.45 -12.5 334.45 -22.65 327.25 -29.9 320 -37.1 309.85 -37.1 Z"/>
</g>

<g id="Layer1_0_FILL">
<path fill="url(#Gradient_1)" stroke="none" d="
M 80 80
L 80 0 0 0 0 80 80 80 Z"/>
</g>
</defs>

<mask id="Mask_Mask_1">
<g transform="matrix( 0.324951171875, 0, 0, 0.3249359130859375, -76.4,12.05) ">
<use xlink:href="#Mask_1_MASK_0_FILL"/>
</g>
</mask>

<g mask="url(#Mask_Mask_1)">
<g transform="matrix( 1, 0, 0, 1, 0,0) ">
<use xlink:href="#Layer1_0_FILL"/>
</g>
</g>
</svg>
