
<svg xmlns="http://www.w3.org/2000/svg" version="1.1" xmlns:xlink="http://www.w3.org/1999/xlink" preserveAspectRatio="none" x="0px" y="0px" width="100px" height="100px" viewBox="0 0 100 100">
<defs>
<g id="Layer0_0_FILL">
<path fill="#F84F31" stroke="none" d="
M 100 78.6
L 100 15.2 8.1 35.3 8.1 61.35 16.2 62.9 16.2 65.9
Q 16.2 73.7 21.75 79.25 27.3 84.85 35.15 84.85 41.85 84.85 47.1 80.55 52.25 76.35 53.6 69.9
L 100 78.6
M 94.25 21.95
L 94.6 21.9 94.6 72.1 56.1 64.85 13.5 56.85 13.5 39.65 94.25 21.95
M 25.6 75.45
Q 21.6 71.45 21.6 65.9
L 21.6 63.9 48.3 68.9
Q 47.25 73.45 43.6 76.4 39.9 79.4 35.15 79.4 29.55 79.4 25.6 75.45 Z"/>

<path fill="#F84F31" fill-opacity="0.4980392156862745" stroke="none" d="
M 94.6 21.9
L 94.25 21.95 56.1 64.85 94.6 72.1 94.6 21.9 Z"/>
</g>

<g id="Layer0_1_FILL">
<path fill="#F84F31" stroke="none" d="
M 15.25 202.6
L 0 202.6 0 286.7 15.25 286.7 15.25 202.6 Z"/>
</g>
</defs>

<g transform="matrix( 1, 0, 0, 1, 0,0) ">
<use xlink:href="#Layer0_0_FILL"/>
</g>

<g transform="matrix( 0.353607177734375, 0, 0, 0.35382080078125, 0,-38.25) ">
<use xlink:href="#Layer0_1_FILL"/>
</g>
</svg>
