
<svg xmlns="http://www.w3.org/2000/svg" version="1.1" xmlns:xlink="http://www.w3.org/1999/xlink" preserveAspectRatio="none" x="0px" y="0px" width="80px" height="80px" viewBox="0 0 80 80">
<defs>
<linearGradient id="Gradient_1" gradientUnits="userSpaceOnUse" x1="29.6625" y1="1.3874999999999957" x2="50.3375" y2="78.61250000000001" spreadMethod="pad">
<stop  offset="0%" stop-color="#86FAF2"/>

<stop  offset="49.80392156862745%" stop-color="#00A6D7"/>

<stop  offset="100%" stop-color="#001B87"/>
</linearGradient>

<g id="Mask_1_MASK_0_FILL">
<path fill="#FFFFFF" stroke="none" d="
M 13.8 39.7
L 13.8 35.7 3.3 35.7 3.3 39.7 13.8 39.7
M 12.65 13.15
L 20 20.6 22.85 17.8 15.5 10.35 12.65 13.15
M 66.2 35.7
L 66.2 39.7 76.7 39.7 76.7 35.7 66.2 35.7
M 42 11.45
L 42 1 38 1 38 11.45 42 11.45
M 54.4 23.3
Q 54.05 22.95 53.75 22.65 47.95 17.35 40 17.35 32.05 17.35 26.3 22.65 25.95 22.95 25.6 23.3 19.65 29.3 19.65 37.7 19.65 49.3 28.7 56.05 28.75 56.05 28.75 56.1
L 30.15 57.1 30.15 71.75
Q 30.15 74.8 32.1 76.9 32.15 76.95 32.2 77.05 34.35 79 37.35 79
L 42.6 79
Q 45.7 79 47.75 77 49.85 74.85 49.85 71.75
L 49.85 57 51.05 56
Q 60.35 49.1 60.35 37.7 60.35 29.25 54.4 23.3
M 34.15 71.75
L 34.15 68.5 45.85 68.5 45.85 71.75
Q 45.85 73.15 44.9 74.15 44 75 42.6 75
L 37.35 75
Q 36 75 35.05 74.2
L 35 74.15
Q 34.15 73.15 34.15 71.75
M 67.25 13.15
L 64.4 10.35 57.05 17.8 59.9 20.6 67.25 13.15 Z"/>
</g>

<g id="Layer1_0_FILL">
<path fill="url(#Gradient_1)" stroke="none" d="
M 80 80
L 80 0 0 0 0 80 80 80 Z"/>
</g>

<path id="Layer1_0_1_STROKES" stroke="#00FF00" stroke-width="0.05" stroke-linejoin="round" stroke-linecap="round" fill="none" d="
M 0 0
L 80 0 80 80 0 80 0 0 Z"/>
</defs>

<mask id="Mask_Mask_1">
<g transform="matrix( 1, 0, 0, 1, 0,0) ">
<use xlink:href="#Mask_1_MASK_0_FILL"/>
</g>
</mask>

<g mask="url(#Mask_Mask_1)">
<g transform="matrix( 1, 0, 0, 1, 0,0) ">
<use xlink:href="#Layer1_0_FILL"/>

<use xlink:href="#Layer1_0_1_STROKES"/>
</g>
</g>
</svg>
