
<svg xmlns="http://www.w3.org/2000/svg" version="1.1" xmlns:xlink="http://www.w3.org/1999/xlink" preserveAspectRatio="none" x="0px" y="0px" width="100px" height="100px" viewBox="0 0 100 100">
<defs>
<linearGradient id="Gradient_1" gradientUnits="userSpaceOnUse" x1="-0.3999999999999986" y1="100.30000000000001" x2="100.30000000000001" y2="-0.3999999999999986" spreadMethod="pad">
<stop  offset="0%" stop-color="#000514"/>

<stop  offset="100%" stop-color="#4766CC"/>
</linearGradient>

<g id="Mask_1_MASK_0_FILL">
<path fill="#FFFFFF" stroke="none" d="
M 97.6 8.65
Q 95.2 6.25 91.8 6.25
L 8.2 6.25
Q 4.8 6.25 2.4 8.65 0 11.05 0 14.45
L 0 85.55
Q 0 88.95 2.4 91.4 4.8 93.8 8.2 93.8
L 91.8 93.8
Q 95.2 93.8 97.6 91.4 100 88.95 100 85.55
L 100 14.45
Q 100 11.05 97.6 8.65
M 94.9 11.35
Q 96.2 12.65 96.2 14.45
L 96.2 85.55
Q 96.2 87.4 94.9 88.7 93.6 90 91.8 90
L 65.8 90 65.8 83.65 88 83.65
Q 88.75 83.65 89.35 83.1 89.9 82.55 89.9 81.8
L 89.9 18.25
Q 89.9 17.45 89.35 16.9 88.75 16.35 88 16.35
L 12 16.35
Q 11.2 16.35 10.65 16.9 10.1 17.45 10.1 18.25
L 10.1 81.8
Q 10.1 82.55 10.65 83.1 11.2 83.65 12 83.65
L 34.2 83.65 34.2 90 8.2 90
Q 6.4 90 5.1 88.7 3.8 87.4 3.8 85.55
L 3.8 14.45
Q 3.8 12.65 5.1 11.35 6.4 10.05 8.2 10.05
L 91.8 10.05
Q 93.6 10.05 94.9 11.35
M 86.1 20.15
L 86.1 79.9 13.9 79.9 13.9 20.15 86.1 20.15
M 38 90
L 38 83.65 62 83.65 62 90 38 90
M 70.6 56.1
Q 70.05 55.55 69.25 55.55 68.45 55.55 67.9 56.1 67.35 56.65 67.35 57.45
L 67.35 62.15 62.7 62.15
Q 61.9 62.15 61.35 62.7 60.8 63.25 60.8 64.05 60.8 64.8 61.35 65.35 61.9 65.9 62.7 65.9
L 67.35 65.9 67.35 70.6
Q 67.35 71.4 67.9 71.95 68.45 72.5 69.25 72.5 70.05 72.5 70.6 71.95 71.15 71.4 71.15 70.6
L 71.15 65.9 75.8 65.9
Q 76.6 65.9 77.15 65.35 77.7 64.8 77.7 64.05 77.7 63.25 77.15 62.7 76.6 62.15 75.8 62.15
L 71.15 62.15 71.15 57.45
Q 71.15 56.65 70.6 56.1
M 78.55 27.45
Q 76.05 24.95 72.55 24.95 69.05 24.95 66.55 27.45 64.05 29.95 64.05 33.45 64.05 36.95 66.55 39.4 69.05 41.9 72.55 41.9 76.05 41.9 78.55 39.4 81 36.95 81 33.45 81 29.95 78.55 27.45
M 75.85 30.15
Q 77.2 31.5 77.2 33.45 77.2 35.35 75.85 36.75 74.45 38.1 72.55 38.1 70.6 38.1 69.25 36.75 67.85 35.35 67.85 33.45 67.85 31.5 69.25 30.15 70.6 28.75 72.55 28.75 74.45 28.75 75.85 30.15
M 60.15 34.65
Q 55.45 36.05 50.1 39.55 39.55 46.45 34.15 57.4 33.8 58.1 34.05 58.85 34.3 59.6 35 59.95 35.4 60.15 35.85 60.15 36.4 60.15 36.85 59.85 37.3 59.55 37.55 59.1 42.45 49.15 52.25 42.75 57.15 39.55 61.25 38.25 62 38.05 62.35 37.35 62.75 36.65 62.5 35.9 62.3 35.15 61.6 34.75 60.9 34.4 60.15 34.65
M 22.8 62.5
Q 20.35 65 20.35 68.45 20.35 72 22.8 74.45 25.3 76.95 28.8 76.95 32.3 76.95 34.8 74.45 37.3 72 37.3 68.45 37.3 65 34.8 62.5 32.3 60 28.8 60 25.3 60 22.8 62.5
M 24.15 68.45
Q 24.15 66.55 25.5 65.15 26.9 63.8 28.8 63.8 30.75 63.8 32.1 65.15 33.5 66.55 33.5 68.45 33.5 70.4 32.1 71.8 30.75 73.15 28.8 73.15 26.9 73.15 25.5 71.8 24.15 70.4 24.15 68.45
M 26.65 23.1
Q 25.85 23.1 25.3 23.65 24.75 24.2 24.75 25
L 24.75 29.65 20.1 29.65
Q 19.3 29.65 18.75 30.2 18.2 30.75 18.2 31.55 18.2 32.35 18.75 32.9 19.3 33.45 20.1 33.45
L 24.75 33.45 24.75 38.15
Q 24.75 38.9 25.3 39.45 25.85 40.05 26.65 40.05 27.45 40.05 28 39.45 28.55 38.9 28.55 38.15
L 28.55 33.45 33.2 33.45
Q 34 33.45 34.55 32.9 35.1 32.35 35.1 31.55 35.1 30.75 34.55 30.2 34 29.65 33.2 29.65
L 28.55 29.65 28.55 25
Q 28.55 24.2 28 23.65 27.45 23.1 26.65 23.1 Z"/>
</g>

<g id="Layer1_0_FILL">
<path fill="url(#Gradient_1)" stroke="none" d="
M 100 0
L 0 0 0 100 100 100 100 0 Z"/>
</g>
</defs>

<mask id="Mask_Mask_1">
<g transform="matrix( 1, 0, 0, 1, 0,0) ">
<use xlink:href="#Mask_1_MASK_0_FILL"/>
</g>
</mask>

<g mask="url(#Mask_Mask_1)">
<g transform="matrix( 1, 0, 0, 1, 0,0) ">
<use xlink:href="#Layer1_0_FILL"/>
</g>
</g>
</svg>
