
<svg xmlns="http://www.w3.org/2000/svg" version="1.1" xmlns:xlink="http://www.w3.org/1999/xlink" preserveAspectRatio="none" x="0px" y="0px" width="100px" height="100px" viewBox="0 0 100 100">
<defs>
<g id="Layer0_0_FILL">
<path fill="#A3B3CC" stroke="none" d="
M 96.05 30.5
Q 92.3 21.55 85.35 14.65 78.45 7.7 69.5 3.95 60.2 0 50 0 39.8 0 30.5 3.95 21.55 7.7 14.65 14.65 7.7 21.55 3.95 30.55 0 39.8 0 50 0 60.2 3.95 69.5 7.7 78.45 14.65 85.35 21.55 92.3 30.5 96.05 39.8 100 50 100 60.2 100 69.5 96.05 78.45 92.3 85.35 85.4 92.3 78.45 96.05 69.5 100 60.2 100 50 100 39.8 96.05 30.5
M 89.35 45.75
Q 87.6 45.75 86.35 47 85.1 48.25 85.1 50 85.1 51.75 86.35 53 87.6 54.25 89.35 54.25
L 91.5 54.25
Q 90.75 61.5 87.6 68.05 84.5 74.45 79.45 79.5 74.45 84.5 68.05 87.6 61.5 90.75 54.25 91.5
L 54.25 89.35
Q 54.25 87.65 53 86.35 51.75 85.1 50 85.1 48.25 85.1 47 86.35 45.75 87.65 45.75 89.35
L 45.75 91.5
Q 38.5 90.75 31.95 87.6 25.55 84.5 20.5 79.5 15.5 74.45 12.4 68.05 9.25 61.5 8.5 54.25
L 10.45 54.25
Q 12.2 54.25 13.45 53.05 14.7 51.75 14.7 50 14.7 48.25 13.45 47 12.2 45.75 10.45 45.75
L 8.55 45.75
Q 9.25 38.55 12.45 31.95 15.5 25.6 20.55 20.55 25.6 15.5 31.95 12.45 38.5 9.3 45.75 8.55
L 45.75 10.45
Q 45.75 12.2 47 13.45 48.25 14.7 50 14.7 51.75 14.7 53 13.45 54.25 12.2 54.25 10.45
L 54.25 8.55
Q 61.5 9.3 68.05 12.45 74.45 15.5 79.45 20.55 84.5 25.6 87.6 31.95 90.75 38.5 91.45 45.75
L 89.35 45.75
M 54.25 29.8
Q 54.25 28.05 53 26.8 51.75 25.55 50 25.55 48.25 25.55 47 26.8 45.75 28.05 45.75 29.8
L 45.75 48.5 26.4 72.35
Q 25.3 73.75 25.5 75.5 25.7 77.15 27 78.3 28.6 79.45 30.45 79.05 31.95 78.7 32.75 77.65
L 53.4 52.55
Q 54.25 51.3 54.25 50
L 54.25 29.8 Z"/>
</g>
</defs>

<g transform="matrix( 1, 0, 0, 1, 0,0) ">
<use xlink:href="#Layer0_0_FILL"/>
</g>
</svg>
