
<svg xmlns="http://www.w3.org/2000/svg" version="1.1" xmlns:xlink="http://www.w3.org/1999/xlink" preserveAspectRatio="none" x="0px" y="0px" width="100px" height="100px" viewBox="0 0 100 100">
<defs>
<g id="Layer0_0_FILL">
<path fill="#F4F4F4" stroke="none" d="
M 148.65 289.8
L 0 289.8 0 489.45 148.65 489.45 148.65 289.8 Z"/>
</g>

<g id="Layer0_1_FILL">
<path fill="#F4F4F4" stroke="none" d="
M 502.65 238.5
L 353.95 238.5 353.95 489.45 502.65 489.45 502.65 238.5 Z"/>
</g>

<g id="Layer0_2_FILL">
<path fill="#F4F4F4" stroke="none" d="
M 176.95 164.05
L 176.95 489.45 325.65 489.45 325.65 164.05 176.95 164.05 Z"/>
</g>

<g id="Layer0_3_FILL">
<path fill="#F4F4F4" stroke="none" d="
M 361.25 136.8
L 395.3 170.05 387.3 217 429.45 194.85 471.6 217 463.55 170.05 497.65 136.8 450.5 129.95 429.45 87.25 408.35 129.95 361.25 136.8 Z"/>
</g>

<g id="Layer0_4_FILL">
<path fill="#F4F4F4" stroke="none" d="
M 286.25 96.1
L 320.35 62.85 273.2 56 252.1 13.25 231.05 56 183.9 62.85 218 96.1 209.95 143 252.15 120.85 294.3 143 286.25 96.1 Z"/>
</g>

<g id="Layer0_5_FILL">
<path fill="#F4F4F4" stroke="none" d="
M 71.7 137.05
L 50.65 179.8 3.5 186.7 37.6 219.9 29.55 266.85 71.7 244.7 113.9 266.85 105.85 219.9 139.95 186.65 92.75 179.8 71.7 137.05 Z"/>
</g>
</defs>

<g transform="matrix( 0.198944091796875, 0, 0, 0.1989593505859375, 0,0) ">
<use xlink:href="#Layer0_0_FILL"/>
</g>

<g transform="matrix( 0.198944091796875, 0, 0, 0.1989593505859375, 0,0) ">
<use xlink:href="#Layer0_1_FILL"/>
</g>

<g transform="matrix( 0.198944091796875, 0, 0, 0.1989593505859375, 0,0) ">
<use xlink:href="#Layer0_2_FILL"/>
</g>

<g transform="matrix( 0.198944091796875, 0, 0, 0.1989593505859375, 0,0) ">
<use xlink:href="#Layer0_3_FILL"/>
</g>

<g transform="matrix( 0.198944091796875, 0, 0, 0.1989593505859375, 0,0) ">
<use xlink:href="#Layer0_4_FILL"/>
</g>

<g transform="matrix( 0.198944091796875, 0, 0, 0.1989593505859375, 0,0) ">
<use xlink:href="#Layer0_5_FILL"/>
</g>
</svg>
