
<svg xmlns="http://www.w3.org/2000/svg" version="1.1" xmlns:xlink="http://www.w3.org/1999/xlink" preserveAspectRatio="none" x="0px" y="0px" width="80px" height="80px" viewBox="0 0 80 80">
<defs>
<linearGradient id="Gradient_1" gradientUnits="userSpaceOnUse" x1="29.6625" y1="1.3874999999999957" x2="50.3375" y2="78.61250000000001" spreadMethod="pad">
<stop  offset="0%" stop-color="#86FAF2"/>

<stop  offset="49.80392156862745%" stop-color="#00A6D7"/>

<stop  offset="100%" stop-color="#001B87"/>
</linearGradient>

<g id="Mask_1_MASK_0_FILL">
<path fill="#FFFFFF" stroke="none" d="
M 300.05 78.6
Q 301 79.4 302.45 81.45 303.5 82.85 304 83.35 304.45 83.8 305.15 83.8 305.85 83.8 306.35 83.35 306.85 82.85 306.85 82.15 306.85 81.45 306.35 80.95 306 80.65 305.15 79.45 303.3 76.95 301.95 75.8 299.55 73.8 296.85 73.8 293.25 73.8 291.45 78.9 290.4 81.8 290.15 85.4 290.15 86.05 290.6 86.6 291.05 87.1 291.75 87.15
L 291.85 87.15
Q 292.5 87.15 292.95 86.7 293.45 86.25 293.5 85.6 293.7 82.65 294.55 80.1 295.6 77.15 296.85 77.15 298.45 77.15 300.05 78.6
M 281.85 83.8
Q 282.1 83.8 282.35 83.75 284.65 83 286.5 80.7 288.2 78.65 289.3 75.65 290.3 72.85 290.55 69.95 290.75 67.05 290.1 65 289.9 64.3 289.25 64 288.65 63.7 288 63.9 287.35 64.1 287 64.75 286.7 65.35 286.9 66 287.45 67.65 287.25 69.95 287.05 72.2 286.25 74.45 285.4 76.75 284.15 78.35 282.85 80.1 281.3 80.55 280.65 80.8 280.35 81.4 280.05 82 280.25 82.65 280.4 83.2 280.85 83.5 281.3 83.8 281.85 83.8
M 270.15 55.5
Q 270.15 54.8 269.7 54.3 269.2 53.8 268.5 53.8 267.8 53.8 267.35 54.3 266.85 54.8 266.85 55.5 266.85 56.75 267.65 58.85 268.1 60.05 268.7 61.25 268.9 61.65 269.3 61.9 269.7 62.15 270.15 62.15 270.55 62.15 270.9 62 271.55 61.65 271.75 61 271.95 60.35 271.65 59.75 271.15 58.7 270.7 57.5 270.15 56.1 270.15 55.5
M 294.7 47.2
Q 294.05 47.4 293.7 48 293.4 48.6 293.55 49.3 295.3 55.25 301.6 61.65 305.2 65.25 312.25 70.6
L 314.15 67.85
Q 307.55 62.85 304.2 59.55 298.3 53.65 296.75 48.35 296.6 47.7 296 47.35 295.4 47.05 294.7 47.2
M 287.9 44.8
Q 287.05 46.25 286.9 47.9 286.7 49.5 287.15 51.1 289 57.55 295.45 64.7 300.1 69.9 308.35 76.55 308.8 76.95 309.4 76.95 309.75 76.95 310.1 76.8 310.45 76.65 310.7 76.3 311.1 75.8 311.05 75.1 310.95 74.4 310.45 74 302.55 67.6 298.15 62.75 292.05 56.05 290.35 50.2 290.1 49.25 290.2 48.25 290.3 47.3 290.8 46.4 291.25 45.55 292.05 44.9 292.8 44.3 293.8 44 294.75 43.75 295.75 43.85 296.7 43.95 297.6 44.45 298.45 44.9 299.1 45.7 299.7 46.45 300 47.45 300.8 50.3 303.75 53.95 306.7 57.6 311.85 62.15 312.4 62.6 313.1 62.55 313.75 62.5 314.2 62 314.7 61.45 314.65 60.8 314.6 60.1 314.05 59.65 308.75 54.95 305.9 51.3 303.75 48.5 303.15 46.5 302.7 44.9 301.7 43.6 300.65 42.35 299.2 41.55 297.75 40.7 296.1 40.55 294.5 40.35 292.85 40.8 291.25 41.25 290 42.3 288.7 43.3 287.9 44.8
M 283.75 34.45
Q 286.6 32.2 290.1 31.2 293.65 30.2 297.25 30.65 300.8 31.05 303.9 32.75 307.05 34.45 309.3 37.2 311.65 40 312.7 43.5 312.75 43.7 312.9 43.85 313.05 44.2 313.9 44.9 315.2 46.15 319.2 49.4 319.7 49.85 320.4 49.8 321.1 49.7 321.55 49.2 321.95 48.65 321.9 47.95 321.85 47.3 321.3 46.85 318.75 44.75 317.15 43.35 315.95 42.3 315.8 42.2 314.5 38.15 311.7 34.85 309.05 31.7 305.35 29.75 301.7 27.8 297.6 27.3 293.3 26.8 289.2 28 285 29.2 281.65 31.85 278.3 34.55 276.2 38.35 274.1 42.15 273.65 46.4 273.15 50.65 274.35 54.8 276.1 60.95 273.55 64.5 272.05 66.7 269.35 67.55 268.7 67.75 268.4 68.35 268.05 68.95 268.25 69.6 268.4 70.15 268.85 70.45 269.3 70.8 269.85 70.8 270.1 70.8 270.35 70.7 274.75 69.35 276.9 65.4 279.5 60.7 277.55 53.9 276.55 50.35 276.95 46.75 277.35 43.15 279.15 39.95 280.9 36.75 283.75 34.45
M 302.45 35.7
Q 299.85 34.3 296.95 33.95 293.95 33.55 291 34.4 288.2 35.25 285.9 37.05 283.7 38.85 282.3 41.35 280.9 43.85 280.5 46.8 280.05 49.8 280.75 52.85 282 58.55 282.15 62.3 282.35 66 281.55 68.3 280.8 70.5 279 71.85 277.45 73.05 274.65 73.9 274 74.1 273.7 74.7 273.4 75.35 273.6 76 273.75 76.5 274.2 76.85 274.65 77.15 275.15 77.15 275.45 77.15 275.65 77.1 279.35 75.95 281.5 74.1 283.75 72.2 284.75 69.35 285.7 66.45 285.5 62.2 285.3 58.1 284 52.15 282.9 47.2 285.2 43.05 287.45 38.9 291.95 37.6 294.2 36.95 296.55 37.25 298.8 37.5 300.8 38.65 302.8 39.75 304.25 41.5 305.75 43.3 306.4 45.6 306.85 47.2 308.25 49 310 51.2 313.7 54.5 314.2 54.95 314.9 54.95 315.6 54.9 316.05 54.4 316.5 53.85 316.5 53.15 316.45 52.5 315.95 52.05 312.55 49 311 47.05 309.85 45.65 309.6 44.65 308.75 41.75 306.85 39.4 305 37.15 302.45 35.7
M 319.95 24.6
Q 319 23.1 316.8 21.35 314.35 19.4 311.15 17.8 302.95 13.8 293.5 13.8 283.75 13.8 276.2 18.1 273.4 19.65 271.3 21.65 269.55 23.25 268.75 24.6 268.4 25.2 268.55 25.9 268.7 26.55 269.3 26.9 269.9 27.25 270.55 27.1 271.25 26.95 271.6 26.35 272.25 25.25 273.75 23.9 275.65 22.2 278.1 20.85 284.8 17.15 293.5 17.15 302 17.15 309.5 20.75 312.35 22.1 314.5 23.8 316.4 25.25 317.05 26.35 317.3 26.75 317.7 26.95 318.05 27.15 318.5 27.15 319 27.15 319.35 26.9 319.95 26.55 320.1 25.9 320.3 25.2 319.95 24.6
M 313.35 11.4
Q 313.05 10.8 312.4 10.6
L 310.5 9.9
Q 306.85 8.55 304.25 8 299.9 7.15 293.5 7.15 287.55 7.15 284.35 7.9 282.35 8.35 279.65 9.7 278.6 10.3 277.8 10.65 277.2 10.9 276.95 11.55 276.7 12.2 277 12.85 277.25 13.45 277.9 13.7 278.55 13.95 279.2 13.65 280 13.3 281.2 12.7 283.5 11.5 285.3 11.1 288.1 10.5 293.5 10.5 299.5 10.5 303.5 11.25 305.9 11.75 309.35 13.05 310.9 13.6 311.3 13.75 311.55 13.8 311.85 13.8 312.35 13.8 312.8 13.5 313.25 13.2 313.4 12.7 313.65 12.05 313.35 11.4
M 326.65 43.05
Q 326.35 42.45 325.7 42.25 324.3 41.8 322.8 39.95 321.9 38.8 320.05 35.85 317.95 32.45 316.65 30.75 314.4 27.75 311.9 25.75 305.3 20.5 295.15 20.5 289.4 20.5 284.15 22.7 279.05 24.9 275.15 28.8 271.2 32.7 269.05 37.8 266.85 43.05 266.85 48.8 266.85 49.5 267.3 50 267.8 50.5 268.5 50.5 269.2 50.5 269.7 50 270.15 49.5 270.15 48.8 270.15 43.75 272.15 39.1 274.05 34.6 277.5 31.15 280.95 27.7 285.45 25.8 290.1 23.8 295.15 23.8 304.1 23.8 309.85 28.4 312.05 30.2 314.1 32.85 315.25 34.45 317.25 37.6 319.4 41.1 320.55 42.45 322.5 44.7 324.65 45.4 325.3 45.65 325.95 45.3 326.55 45 326.75 44.35 326.95 43.7 326.65 43.05
M 326.75 35
Q 326.2 33.25 324.7 30.5 323.3 28.05 323.25 27.95 322.9 27.35 322.2 27.2 321.55 27.05 320.95 27.4 320.35 27.75 320.2 28.45 320.05 29.1 320.4 29.7
L 321.7 31.95
Q 323.1 34.5 323.6 36 323.75 36.5 324.2 36.85 324.65 37.15 325.15 37.15 325.45 37.15 325.65 37.1 326.35 36.85 326.65 36.25 326.95 35.65 326.75 35 Z"/>
</g>

<g id="Layer1_0_FILL">
<path fill="url(#Gradient_1)" stroke="none" d="
M 80 80
L 80 0 0 0 0 80 80 80 Z"/>
</g>

<path id="Layer1_0_1_STROKES" stroke="#00FF00" stroke-width="0.05" stroke-linejoin="round" stroke-linecap="round" fill="none" d="
M 0 0
L 80 0 80 80 0 80 0 0 Z"/>
</defs>

<mask id="Mask_Mask_1">
<g transform="matrix( 1, 0, 0, 1, -256.85,-7.15) ">
<use xlink:href="#Mask_1_MASK_0_FILL"/>
</g>
</mask>

<g mask="url(#Mask_Mask_1)">
<g transform="matrix( 1, 0, 0, 1, 0,0) ">
<use xlink:href="#Layer1_0_FILL"/>

<use xlink:href="#Layer1_0_1_STROKES"/>
</g>
</g>
</svg>
