
<svg xmlns="http://www.w3.org/2000/svg" version="1.1" xmlns:xlink="http://www.w3.org/1999/xlink" preserveAspectRatio="none" x="0px" y="0px" width="100px" height="100px" viewBox="0 0 100 100">
<defs>
<linearGradient id="Gradient_1" gradientUnits="userSpaceOnUse" x1="-0.3999999999999986" y1="100.30000000000001" x2="100.30000000000001" y2="-0.3999999999999986" spreadMethod="pad">
<stop  offset="0%" stop-color="#000514"/>

<stop  offset="100%" stop-color="#4766CC"/>
</linearGradient>

<g id="Mask_1_MASK_0_FILL">
<path fill="#FFFFFF" stroke="none" d="
M 28.1 57.45
Q 27.05 57.45 26.35 58.2 25.6 58.9 25.6 59.95 25.6 61 26.35 61.75 27.05 62.45 28.1 62.45
L 51.3 62.45
Q 52.35 62.45 53.1 61.75 53.8 61 53.8 59.95 53.8 58.9 53.1 58.2 52.35 57.45 51.3 57.45
L 28.1 57.45
M 68.85 42.75
Q 68.1 42 67.05 42
L 28.1 42
Q 27.05 42 26.35 42.75 25.6 43.45 25.6 44.5 25.6 45.55 26.35 46.3 27.05 47 28.1 47
L 67.05 47
Q 68.1 47 68.85 46.3 69.55 45.55 69.55 44.5 69.55 43.45 68.85 42.75
M 55.65 16.5
Q 54.9 15.45 53.7 15.3 34.65 12.45 20.65 19.2 7.6 25.45 2.6 37.65 -2.5 49.65 2.5 61.9 7.55 74.65 22.2 82.2 23.3 82.75 24.5 82.35 25.65 81.95 26.25 80.9 26.8 79.75 26.4 78.6 26 77.4 24.95 76.85 12.45 70.45 8.05 59.65 4 49.75 8.15 40
L 8.15 39.95
Q 12.4 29.85 23.25 24.6 35.75 18.65 52.8 21.25 54 21.4 55.05 20.65 56.05 19.9 56.25 18.7 56.4 17.5 55.65 16.5
M 91.85 44.5
Q 91.7 43.25 90.75 42.5 89.8 41.7 88.55 41.85 87.3 41.95 86.55 42.9 85.75 43.85 85.9 45.1 88.7 74.45 55.15 79.2 46.75 79.7 46.55 84.8 45.5 88.6 51.35 95.4 52.15 96.35 53.4 96.45 54.6 96.55 55.55 95.75 56.5 94.9 56.6 93.7 56.7 92.45 55.9 91.5 52.55 87.6 52.45 85.8 53 85.35 55.6 85.2 55.75 85.2 55.9 85.2 95.6 79.6 91.85 44.5
M 93.7 20.8
Q 93.7 14.6 89.3 10.15 84.9 5.8 78.7 5.8 72.45 5.8 68.05 10.15 63.7 14.6 63.7 20.8 63.7 27 68.05 31.4 72.45 35.8 78.7 35.8 84.9 35.8 89.3 31.4 93.7 27 93.7 20.8 Z"/>
</g>

<g id="Layer1_0_FILL">
<path fill="url(#Gradient_1)" stroke="none" d="
M 100 0
L 0 0 0 100 100 100 100 0 Z"/>
</g>
</defs>

<mask id="Mask_Mask_1">
<g transform="matrix( 1, 0, 0, 1, 0,0) ">
<use xlink:href="#Mask_1_MASK_0_FILL"/>
</g>
</mask>

<g mask="url(#Mask_Mask_1)">
<g transform="matrix( 1, 0, 0, 1, 0,0) ">
<use xlink:href="#Layer1_0_FILL"/>
</g>
</g>
</svg>
