<svg width="488.4" height="488.4" xmlns="http://www.w3.org/2000/svg" xml:space="preserve" version="1.1">

 <g>
  <title>Layer 1</title>
  <g id="svg_5"/>
  <g id="svg_6"/>
  <g id="svg_7"/>
  <g id="svg_8"/>
  <g id="svg_9"/>
  <g id="svg_10"/>
  <g id="svg_11"/>
  <g id="svg_12"/>
  <g id="svg_13"/>
  <g id="svg_14"/>
  <g id="svg_15"/>
  <g id="svg_16"/>
  <g id="svg_17"/>
  <g id="svg_18"/>
  <g id="svg_19"/>
  <g id="svg_1">
   <g id="svg_23">
    <path fill="#ffffff" id="svg_21" d="m484.6,295.2l-69.5,-107.4c-5.4,-8.3 -14.5,-13.3 -24.4,-13.3l-30.7,0c-4.5,0 -7.2,5 -4.7,8.7l75,116c1,1.5 -0.1,3.5 -1.9,3.5l-32.9,0l-26.8,0l-25.7,0c-3.1,0 -5.5,2.5 -5.7,5.5c-2.9,48.4 -43,86.8 -92.2,86.8s-89.3,-38.4 -92.2,-86.8c-0.2,-3.1 -2.6,-5.5 -5.7,-5.5l-25.7,0l-23,0l-36.6,0c-1.8,0 -2.8,-2 -1.9,-3.5l75,-116c2.4,-3.8 -0.3,-8.7 -4.7,-8.7l-30.7,0c-9.9,0 -19,5 -24.4,13.3l-69.4,107.4c-3.1,4.8 -4.8,10.5 -4.8,16.3l0,149.6c0,14.6 11.9,26.5 26.5,26.5l217.7,0l217.7,0c14.6,0 26.5,-11.9 26.5,-26.5l0,-149.6c0,-5.8 -1.6,-11.4 -4.8,-16.3z"/>
    <path fill="#ffffff" id="svg_22" d="m253.2,4.7c-4.1,-5.2 -12,-5.2 -16.1,0l-65.9,83.8c-5.3,6.7 -0.5,16.6 8,16.6l26,0l0,158.3c0,22.1 17.9,40 40,40l0,0c22.1,0 40,-17.9 40,-40l0,-158.4l26,0c8.5,0 13.3,-9.9 8,-16.6l-66,-83.7z"/>
   </g>
  </g>
 </g>
</svg>