
<svg xmlns="http://www.w3.org/2000/svg" version="1.1" xmlns:xlink="http://www.w3.org/1999/xlink" preserveAspectRatio="none" x="0px" y="0px" width="100px" height="100px" viewBox="0 0 100 100">
<defs>
<g id="Layer0_0_FILL">
<path fill="#1D1D1B" fill-opacity="0.4980392156862745" stroke="none" d="
M 65.45 44.85
L 65.45 12.05 40.45 40.15 65.45 44.85 Z"/>
</g>

<g id="Layer0_0_MEMBER_0_MEMBER_0_MEMBER_0_FILL">
<path fill="#1D1D1B" stroke="none" d="
M 15.25 202.6
L 0 202.6 0 286.7 15.25 286.7 15.25 202.6 Z"/>
</g>

<g id="Layer0_0_MEMBER_0_MEMBER_1_FILL">
<path fill="#1D1D1B" stroke="none" d="
M 45.85 285.85
L 45.85 294.3
Q 45.85 316.45 61.55 332.15 77.2 347.85 99.35 347.85 118.4 347.85 133.15 335.8 147.7 323.9 151.65 305.7
L 282.85 330.3 282.85 151.05 22.9 207.9 22.9 281.55 45.85 285.85
M 61.15 294.3
L 61.15 288.7 136.6 302.85
Q 133.65 315.75 123.3 324.1 112.85 332.55 99.35 332.55 83.55 332.55 72.35 321.35 61.15 310.1 61.15 294.3
M 38.2 268.85
L 38.2 220.2 267.55 170.05 267.55 311.85 38.2 268.85 Z"/>
</g>
</defs>

<g transform="matrix( 1.7301025390625, 0, 0, 1.7304229736328125, -15.9,-2.35) ">
<use xlink:href="#Layer0_0_FILL"/>
</g>

<g transform="matrix( 0.353607177734375, 0, 0, 0.35382080078125, 0,-38.25) ">
<use xlink:href="#Layer0_0_MEMBER_0_MEMBER_0_MEMBER_0_FILL"/>
</g>

<g transform="matrix( 0.353607177734375, 0, 0, 0.35382080078125, 0,-38.25) ">
<use xlink:href="#Layer0_0_MEMBER_0_MEMBER_1_FILL"/>
</g>
</svg>
