
<svg xmlns="http://www.w3.org/2000/svg" version="1.1" xmlns:xlink="http://www.w3.org/1999/xlink" preserveAspectRatio="none" x="0px" y="0px" width="120px" height="120px" viewBox="0 0 120 120">
<defs>
<g id="Layer0_0_FILL">
<path fill="#F4F4F4" stroke="none" d="
M 22.2 24.25
L 24 9 6 9 7.75 24.25
Q 7.85 25 8.45 25.5 9 26 9.75 26
L 20.2 26
Q 20.95 26 21.5 25.5 22.1 25 22.2 24.25
M 22.2 4.3
Q 21.9 4 21.5 4
L 16 4 16 3.5
Q 16 3.1 15.7 2.8 15.4 2.5 15 2.5
L 14.95 2.5
Q 14.55 2.5 14.25 2.8 13.95 3.1 14 3.5
L 14 4 8.5 4
Q 8.05 4 7.75 4.3 7.45 4.6 7.45 5
L 6 5
Q 5.55 5 5.25 5.3 4.95 5.6 4.95 6 4.95 6.4 5.25 6.7 5.55 7 5.95 7 5.95 7.05 6 7
L 24 7
Q 24.4 7.05 24.7 6.75 25 6.45 25 6.05 25 5.65 24.7 5.35 24.4 5.05 24 5
L 22.5 5
Q 22.5 4.6 22.2 4.3 Z"/>
</g>
</defs>

<g transform="matrix( 5.1072235107421875, 0, 0, 5.10638427734375, -16.5,-12.75) ">
<use xlink:href="#Layer0_0_FILL"/>
</g>
</svg>
