
<svg xmlns="http://www.w3.org/2000/svg" version="1.1" xmlns:xlink="http://www.w3.org/1999/xlink" preserveAspectRatio="none" x="0px" y="0px" width="100px" height="100px" viewBox="0 0 100 100">
<defs>
<g id="Layer0_0_FILL">
<path fill="#001466" stroke="none" d="
M 40.35 56.15
Q 33.4 56.15 28.55 61 23.65 65.8 23.65 72.75 23.65 76.05 26.05 78.15 36.35 86.9 50 86.9 63.65 86.9 73.85 78.15 76.35 76.15 76.35 72.75 76.35 65.8 71.45 61 66.6 56.15 59.55 56.15
L 40.35 56.15
M 61.65 19.8
Q 56.8 14.95 50 14.95 43.2 14.95 38.25 19.8 33.4 24.6 33.4 31.55 33.4 38.35 38.25 43.2 43.2 48 50 48 56.8 48 61.65 43.2 66.5 38.35 66.5 31.55 66.5 24.6 61.65 19.8 Z"/>
</g>
</defs>

<g transform="matrix( 1, 0, 0, 1, 0,0) ">
<use xlink:href="#Layer0_0_FILL"/>
</g>
</svg>
