
<svg xmlns="http://www.w3.org/2000/svg" version="1.1" xmlns:xlink="http://www.w3.org/1999/xlink" preserveAspectRatio="none" x="0px" y="0px" width="100px" height="100px" viewBox="0 0 100 100">
<defs>
<g id="Layer0_0_FILL">
<path fill="#F4F4F4" stroke="none" d="
M 853.55 223.4
L 851.75 221.3
Q 845.3 213.75 835.7 211.15 826.1 208.55 816.7 211.8
L 735.5 240.7
Q 690.05 203.4 635.9 183.2
L 620.2 98.3
Q 618.35 88.5 611.3 81.45 604.2 74.4 594.4 72.6
L 591.7 72.1
Q 552.7 65.05 512.3 65.05 471.9 65.05 432.9 72.1
L 430.2 72.6
Q 420.35 74.4 413.25 81.45 406.2 88.5 404.4 98.3
L 388.6 183.6
Q 334.4 204.2 289.7 240.9
L 207.9 211.8
Q 198.5 208.5 188.85 211.1 179.2 213.7 172.8 221.3
L 171 223.4
Q 145.05 254 125 288.7 104.95 323.4 91.4 361.1
L 90.5 363.7
Q 87.15 373.1 89.7 382.75 92.25 392.4 99.8 398.9
L 166 455.4
Q 161.4 483.3 161.4 512.4 161.4 541.8 166 569.4
L 100 625.9
Q 92.4 632.45 89.85 642.1 87.3 651.75 90.7 661.1
L 91.6 663.7
Q 119.15 740.2 171.2 801.4
L 173 803.5
Q 179.45 811.1 189.05 813.7 198.7 816.3 208.1 813
L 289.9 783.9
Q 335.3 821.25 388.8 841.2
L 404.6 926.5
Q 406.4 936.35 413.45 943.4 420.55 950.45 430.35 952.2
L 433.1 952.7
Q 472.45 959.85 512.5 959.85 552.5 959.85 591.9 952.7
L 594.6 952.2
Q 604.4 950.45 611.5 943.4 618.55 936.35 620.4 926.5
L 636.1 841.6
Q 690.5 821.15 735.7 784.1
L 816.9 813
Q 826.3 816.35 835.9 813.75 845.55 811.15 852 803.5
L 853.75 801.4
Q 906 739.7 933.35 663.7
L 934.25 661.1
Q 937.5 651.8 934.9 642.2 932.3 632.6 924.75 626.1
L 859.35 570.2
Q 864.05 541.4 864.05 512.5 864.05 483 859.35 454.8
L 924.75 398.9
Q 932.35 392.4 934.9 382.75 937.45 373.1 934.05 363.7
L 933.15 361.1
Q 919.7 323.4 899.6 288.65 879.55 254 853.55 223.4
M 688.25 502.5
Q 688.25 538.25 674.45 570.95 661.1 602.5 636.75 626.8 612.45 651.15 580.9 664.5 548.25 678.3 512.5 678.3 476.7 678.3 444.05 664.5 412.5 651.15 388.15 626.8 363.85 602.5 350.5 570.95 336.7 538.25 336.7 502.5 336.7 466.75 350.5 434.1 363.85 402.55 388.2 378.25 412.5 353.9 444.05 340.55 476.75 326.75 512.5 326.75 548.25 326.75 580.9 340.55 612.45 353.9 636.75 378.25 661.1 402.55 674.45 434.1 688.25 466.75 688.25 502.5
M 512.5 390.6
L 512.5 390.65
Q 490.1 390.65 469.7 399.1 449.3 407.55 433.35 423.4 417.5 439.35 409.05 459.75 400.6 480.15 400.6 502.5 400.6 524.9 409.1 545.35 417.55 565.7 433.35 581.6 449.3 597.45 469.7 605.9 490.1 614.4 512.5 614.4 534.9 614.4 555.3 605.9 575.65 597.45 591.55 581.6 607.4 565.65 615.85 545.3 624.35 524.9 624.35 502.5 624.35 480.1 615.85 459.7 607.4 439.35 591.55 423.4 575.9 407.6 555.3 399.1 534.75 390.55 512.5 390.6 Z"/>
</g>
</defs>

<g transform="matrix( 0.1117401123046875, 0, 0, 0.11175537109375, -7.25,-7.25) ">
<use xlink:href="#Layer0_0_FILL"/>
</g>
</svg>
