
<svg xmlns="http://www.w3.org/2000/svg" version="1.1" xmlns:xlink="http://www.w3.org/1999/xlink" preserveAspectRatio="none" x="0px" y="0px" width="100px" height="100px" viewBox="0 0 100 100">
<defs>
<g id="Layer2_0_FILL">
<path fill="#E0E0E0" stroke="none" d="
M 88.1 17.75
L 87.9 17.5
Q 87.1 16.65 86.1 16.35 84.95 16.1 84 16.45
L 74.9 19.65
Q 69.75 15.5 63.8 13.25
L 62.05 3.75
Q 61.8 2.65 61.05 1.9 60.2 1.05 59.15 0.9
L 58.85 0.85
Q 54.65 0.05 49.95 0.05 45.3 0.05 41.1 0.85
L 40.8 0.9
Q 39.75 1.05 38.9 1.9 38.15 2.65 37.9 3.75
L 36.15 13.3
Q 30.05 15.65 25.1 19.7
L 15.95 16.45
Q 14.85 16.05 13.85 16.35 12.75 16.65 12.05 17.5
L 11.85 17.75
Q 9.05 21 6.7 25.05 4.45 28.9 2.95 33.15
L 2.85 33.4
Q 2.45 34.5 2.75 35.55 3.05 36.65 3.9 37.35
L 11.25 43.65
Q 10.75 47.15 10.75 50.05 10.75 53 11.25 56.4
L 3.9 62.7
Q 3.05 63.5 2.75 64.55 2.45 65.55 2.85 66.65
L 2.95 66.95
Q 6 75.45 11.85 82.35
L 12.05 82.55
Q 12.75 83.4 13.85 83.7 14.95 84 16 83.65
L 25.1 80.4
Q 30.25 84.55 36.15 86.8
L 37.95 96.3
Q 38.1 97.4 38.9 98.2 39.65 98.95 40.8 99.2
L 41.1 99.25
Q 45.1 100 50 100 54.9 100 58.85 99.25
L 59.15 99.2
Q 60.35 98.95 61.05 98.2 61.8 97.5 62.05 96.3
L 63.8 86.85
Q 69.85 84.55 74.95 80.4
L 84 83.65
Q 85 84 86.15 83.7 87.25 83.4 87.95 82.55
L 88.1 82.35
Q 94 75.35 97 66.95
L 97.1 66.65
Q 97.5 65.55 97.2 64.55 96.9 63.55 96.05 62.75
L 88.75 56.5
Q 89.25 53.45 89.25 50.05 89.25 46.6 88.75 43.6
L 96.05 37.35
Q 96.9 36.55 97.2 35.55 97.5 34.5 97.1 33.4
L 97 33.15
Q 95.5 28.9 93.25 25.05 90.9 21 88.1 17.75
M 42.35 30.85
Q 45.95 29.3 50 29.3 54.05 29.3 57.65 30.85 61.1 32.3 63.9 35.05 66.6 37.75 68.1 41.3 69.65 45 69.65 48.95 69.65 52.8 68.1 56.6 66.6 60.1 63.9 62.8 61.15 65.55 57.65 67.05 53.85 68.6 50 68.6 46.15 68.6 42.35 67.05 38.75 65.5 36.1 62.8 33.4 60.1 31.9 56.6 30.35 53 30.35 48.95 30.35 44.85 31.9 41.3 33.4 37.75 36.1 35.05 38.8 32.35 42.35 30.85
M 50 36.45
Q 47.45 36.45 45.2 37.4 42.95 38.3 41.15 40.1 39.35 41.9 38.45 44.15 37.5 46.35 37.5 48.95 37.5 51.5 38.45 53.7 39.35 56.05 41.15 57.75 42.9 59.5 45.2 60.5 47.65 61.45 50 61.45 52.4 61.45 54.75 60.5 57.1 59.5 58.8 57.75 60.55 56.05 61.55 53.7 62.5 51.35 62.5 48.95 62.5 46.55 61.55 44.15 60.55 41.85 58.8 40.1 57.1 38.3 54.75 37.4 52.4 36.4 50 36.45 Z"/>
</g>
</defs>

<g transform="matrix( 1, 0, 0, 1, 0,0) ">
<use xlink:href="#Layer2_0_FILL"/>
</g>
</svg>
