
<svg xmlns="http://www.w3.org/2000/svg" version="1.1" xmlns:xlink="http://www.w3.org/1999/xlink" preserveAspectRatio="none" x="0px" y="0px" width="100px" height="100px" viewBox="0 0 100 100">
<defs>
<path id="Layer1_0_1_STROKES" stroke="#E0E0E0" stroke-width="5" stroke-linejoin="round" stroke-linecap="round" fill="none" d="
M 93.85 62.05
L 86.85 56.15
Q 87.35 53.1 87.35 50 87.35 46.9 86.85 43.9
L 93.85 38
Q 94.65 37.25 94.85 36.2 95.15 35.25 94.8 34.25
L 94.7 33.95
Q 93.25 29.95 91.1 26.25 89.05 22.6 86.3 19.3
L 86.05 19.1
Q 85.4 18.3 84.4 18.05 83.35 17.75 82.35 18.1
L 73.75 21.15
Q 68.9 17.2 63.15 15.05
L 61.5 6.05
Q 61.3 5 60.55 4.25 59.8 3.5 58.75 3.3
L 58.45 3.25
Q 54.3 2.5 50.05 2.5 45.75 2.5 41.6 3.25
L 41.3 3.3
Q 40.25 3.5 39.55 4.25 38.8 5 38.6 6.05
L 36.9 15.1
Q 31.15 17.25 26.4 21.15
L 17.75 18.1
Q 16.75 17.75 15.7 18.05 14.65 18.3 14 19.1
L 13.8 19.3
Q 11.05 22.6 8.9 26.25 6.8 29.95 5.35 33.95
L 5.25 34.25
Q 4.9 35.25 5.15 36.2 5.45 37.25 6.25 38
L 13.3 43.95
Q 12.8 46.9 12.8 50 12.8 53.15 13.3 56.1
L 6.25 62.05
Q 5.45 62.8 5.2 63.75 4.9 64.8 5.3 65.8
L 5.4 66.05
Q 8.3 74.2 13.85 80.7
L 14.05 80.9
Q 14.7 81.75 15.7 82 16.75 82.3 17.75 81.9
L 26.45 78.85
Q 31.25 82.8 36.95 84.9
L 38.6 94
Q 38.8 95.05 39.55 95.8 40.3 96.5 41.35 96.7
L 41.65 96.75
Q 45.8 97.5 50.05 97.5 54.3 97.5 58.5 96.75
L 58.8 96.7
Q 59.85 96.5 60.6 95.8 61.3 95.05 61.5 94
L 63.2 84.95
Q 68.95 82.75 73.75 78.9
L 82.4 81.9
Q 83.4 82.3 84.4 82 85.4 81.75 86.1 80.9
L 86.3 80.7
Q 91.85 74.15 94.75 66.05
L 94.85 65.8
Q 95.15 64.8 94.85 63.75 94.65 62.8 93.85 62.05 Z
M 50.05 37.1
Q 47.65 37.1 45.55 38 43.35 38.9 41.65 40.55 39.95 42.25 39.05 44.45 38.15 46.6 38.15 48.95 38.15 51.35 39.05 53.5 39.95 55.65 41.65 57.35 43.35 59 45.55 59.95 47.65 60.85 50.05 60.85 52.4 60.85 54.6 59.95 56.75 59 58.45 57.35 60.1 55.65 61 53.5 61.9 51.35 61.9 48.95 61.9 46.6 61 44.4 60.1 42.25 58.45 40.55 56.8 38.9 54.6 38 52.4 37.1 50.05 37.1 Z"/>
</defs>

<g transform="matrix( 1, 0, 0, 1, 0,0) ">
<use xlink:href="#Layer1_0_1_STROKES"/>
</g>
</svg>
